<svg id="svg" version="1.1" width="400" height="188.23529411764707" viewBox="0 0 400 188.23529411764707" xmlns="http://www.w3.org/2000/svg" xmlns:xlink="http://www.w3.org/1999/xlink" ><g id="svgg"><path id="path0" d="M39.718 43.271 C 39.718 43.508,40.270 43.934,40.404 43.800 C 40.597 43.607,40.309 43.106,40.006 43.106 C 39.847 43.106,39.718 43.180,39.718 43.271 M19.802 45.591 C 19.534 45.859,19.503 46.306,19.754 46.306 C 19.851 46.306,19.991 46.208,20.065 46.089 C 20.148 45.954,20.117 45.922,19.982 46.006 C 19.862 46.079,19.765 46.059,19.765 45.961 C 19.765 45.732,20.309 45.518,20.535 45.658 C 20.629 45.716,20.706 45.674,20.706 45.564 C 20.706 45.293,20.082 45.311,19.802 45.591 M16.226 48.038 C 15.952 48.312,15.922 49.012,16.191 48.845 C 16.297 48.780,16.326 48.635,16.257 48.523 C 16.187 48.411,16.287 48.205,16.478 48.066 C 16.669 47.926,16.741 47.812,16.638 47.812 C 16.536 47.812,16.350 47.913,16.226 48.038 M12.538 51.686 C 12.363 52.142,12.401 52.518,12.623 52.518 C 12.733 52.518,12.775 52.441,12.716 52.346 C 12.537 52.057,12.833 51.549,13.116 51.658 C 13.265 51.715,13.333 51.677,13.269 51.574 C 13.092 51.288,12.665 51.354,12.538 51.686 M44.868 51.718 C 44.883 51.910,44.763 52.048,44.578 52.049 C 44.404 52.051,44.199 52.114,44.123 52.191 C 44.047 52.267,44.151 52.329,44.355 52.329 C 44.558 52.329,44.826 52.228,44.951 52.104 C 45.214 51.840,45.251 51.388,45.009 51.388 C 44.917 51.388,44.854 51.536,44.868 51.718 M43.799 58.656 C 43.890 58.893,43.856 58.938,43.673 58.825 C 43.508 58.723,43.469 58.744,43.558 58.889 C 43.632 59.008,43.589 59.106,43.462 59.106 C 43.335 59.106,43.276 59.150,43.330 59.204 C 43.384 59.259,43.568 59.250,43.738 59.184 C 44.080 59.053,44.151 58.628,43.861 58.448 C 43.750 58.380,43.725 58.465,43.799 58.656 M31.854 61.210 C 31.883 61.347,31.763 61.448,31.588 61.435 C 31.413 61.421,31.227 61.521,31.175 61.656 C 31.101 61.850,31.198 61.861,31.635 61.709 C 32.205 61.510,32.332 61.288,31.995 61.079 C 31.889 61.014,31.826 61.072,31.854 61.210 M115.509 67.953 C 115.627 68.108,115.766 68.405,115.817 68.612 C 115.905 68.969,115.910 68.968,115.931 68.588 C 115.943 68.367,115.805 68.071,115.624 67.929 C 115.337 67.704,115.322 67.707,115.509 67.953 M93.976 69.019 C 93.696 69.132,93.665 69.578,93.927 69.740 C 94.030 69.804,94.067 69.735,94.011 69.587 C 93.902 69.303,94.410 69.008,94.699 69.187 C 94.794 69.245,94.871 69.203,94.871 69.093 C 94.871 68.889,94.396 68.849,93.976 69.019 M154.967 69.024 C 155.149 69.072,155.242 69.202,155.173 69.314 C 155.098 69.435,155.136 69.462,155.267 69.382 C 155.398 69.300,155.555 69.420,155.660 69.682 C 155.782 69.986,155.839 70.022,155.847 69.802 C 155.862 69.391,155.354 68.888,154.951 68.916 C 154.672 68.935,154.674 68.948,154.967 69.024 M89.129 71.529 C 88.926 71.859,89.228 72.137,89.523 71.892 C 89.669 71.771,89.788 71.597,89.788 71.506 C 89.788 71.279,89.273 71.297,89.129 71.529 M41.682 77.082 C 41.682 79.774,41.709 80.849,41.741 79.471 C 41.773 78.093,41.773 75.891,41.741 74.577 C 41.708 73.263,41.682 74.391,41.682 77.082 M85.685 73.826 C 85.416 74.095,85.386 74.541,85.636 74.541 C 85.733 74.541,85.874 74.443,85.947 74.324 C 86.031 74.189,85.999 74.158,85.864 74.241 C 85.745 74.315,85.647 74.295,85.647 74.196 C 85.647 73.974,86.189 73.752,86.404 73.885 C 86.491 73.939,86.615 73.897,86.680 73.791 C 86.848 73.520,85.960 73.551,85.685 73.826 M126.732 73.730 C 126.914 73.778,127.007 73.908,126.938 74.020 C 126.863 74.141,126.901 74.168,127.031 74.088 C 127.155 74.011,127.290 74.081,127.343 74.247 C 127.394 74.409,127.480 74.680,127.534 74.850 C 127.588 75.021,127.675 75.117,127.727 75.065 C 128.050 74.742,127.213 73.589,126.682 73.625 C 126.484 73.638,126.499 73.670,126.732 73.730 M84.329 75.189 C 84.329 75.338,84.416 75.514,84.522 75.579 C 84.628 75.645,84.692 75.586,84.663 75.449 C 84.635 75.312,84.724 75.223,84.861 75.252 C 84.998 75.280,85.057 75.217,84.991 75.111 C 84.812 74.821,84.329 74.878,84.329 75.189 M128.251 75.192 C 128.251 75.342,128.336 75.413,128.440 75.349 C 128.557 75.277,128.577 75.369,128.491 75.593 C 128.385 75.871,128.405 75.902,128.579 75.730 C 128.813 75.498,128.695 74.918,128.414 74.918 C 128.324 74.918,128.251 75.041,128.251 75.192 M83.238 76.273 C 83.113 76.397,83.012 76.633,83.012 76.796 C 83.012 76.960,82.758 77.190,82.447 77.307 C 82.054 77.455,81.882 77.647,81.882 77.936 C 81.882 78.284,81.928 78.314,82.165 78.118 C 82.482 77.854,82.548 77.657,82.259 77.835 C 82.155 77.899,82.071 77.862,82.071 77.752 C 82.071 77.643,82.155 77.542,82.259 77.529 C 82.829 77.458,83.399 77.158,83.292 76.985 C 83.163 76.775,83.390 76.235,83.608 76.235 C 83.706 76.235,83.726 76.333,83.653 76.453 C 83.569 76.587,83.601 76.619,83.736 76.536 C 83.855 76.462,83.953 76.322,83.953 76.224 C 83.953 75.974,83.506 76.004,83.238 76.273 M167.944 80.979 C 167.664 81.258,167.646 81.882,167.917 81.882 C 168.027 81.882,168.069 81.805,168.010 81.711 C 167.871 81.485,168.085 80.941,168.314 80.941 C 168.412 80.941,168.432 81.039,168.358 81.158 C 168.275 81.293,168.307 81.325,168.442 81.242 C 168.561 81.168,168.659 81.027,168.659 80.930 C 168.659 80.680,168.212 80.710,167.944 80.979 M137.348 81.286 C 137.383 81.424,137.412 81.572,137.412 81.615 C 137.412 81.777,137.959 81.687,138.069 81.508 C 138.138 81.398,138.053 81.372,137.861 81.446 C 137.625 81.537,137.580 81.503,137.692 81.321 C 137.790 81.162,137.773 81.116,137.645 81.196 C 137.534 81.264,137.408 81.256,137.365 81.178 C 137.321 81.099,137.314 81.148,137.348 81.286 M132.418 82.062 C 132.480 82.161,132.668 82.189,132.837 82.124 C 133.059 82.039,133.101 82.076,132.990 82.256 C 132.880 82.433,132.908 82.461,133.085 82.351 C 133.273 82.235,133.300 82.287,133.197 82.557 C 133.090 82.840,133.110 82.868,133.289 82.690 C 133.469 82.512,133.466 82.401,133.277 82.173 C 133.019 81.862,132.232 81.761,132.418 82.062 M166.884 83.308 C 166.721 83.470,166.594 83.746,166.600 83.919 C 166.608 84.140,166.665 84.103,166.787 83.800 C 166.892 83.538,167.049 83.418,167.180 83.499 C 167.311 83.580,167.349 83.553,167.274 83.432 C 167.205 83.320,167.298 83.190,167.480 83.142 C 167.773 83.066,167.775 83.053,167.496 83.034 C 167.322 83.022,167.047 83.145,166.884 83.308 M139.504 84.363 C 139.476 84.766,139.979 85.274,140.390 85.259 C 140.610 85.250,140.574 85.194,140.270 85.072 C 140.008 84.967,139.889 84.810,139.970 84.678 C 140.051 84.548,140.023 84.510,139.902 84.585 C 139.790 84.654,139.660 84.561,139.613 84.379 C 139.536 84.086,139.523 84.084,139.504 84.363 M77.291 84.627 C 77.099 85.128,77.150 85.793,77.355 85.468 C 77.450 85.317,77.484 85.123,77.430 85.036 C 77.376 84.949,77.435 84.754,77.560 84.604 C 77.694 84.442,77.709 84.329,77.596 84.329 C 77.491 84.329,77.354 84.463,77.291 84.627 M188.424 85.560 C 188.261 85.760,188.241 85.847,188.376 85.766 C 188.506 85.688,188.612 85.702,188.612 85.795 C 188.612 85.889,188.421 86.058,188.188 86.170 C 187.885 86.317,187.852 86.378,188.071 86.387 C 188.470 86.404,188.848 85.940,188.768 85.533 C 188.711 85.238,188.683 85.241,188.424 85.560 M164.329 85.626 C 164.329 85.718,164.478 85.782,164.659 85.767 C 164.851 85.752,164.989 85.873,164.991 86.057 C 164.992 86.231,165.055 86.436,165.132 86.512 C 165.208 86.589,165.271 86.484,165.271 86.281 C 165.271 86.077,165.169 85.809,165.045 85.685 C 164.781 85.421,164.329 85.384,164.329 85.626 M165.524 85.749 C 165.462 85.909,165.463 86.091,165.525 86.153 C 165.659 86.287,166.212 85.861,166.212 85.624 C 166.212 85.340,165.641 85.444,165.524 85.749 M113.727 88.220 C 113.761 88.392,113.896 88.555,114.028 88.582 C 114.160 88.609,114.181 88.588,114.075 88.535 C 113.969 88.482,113.882 88.357,113.882 88.256 C 113.882 88.155,113.980 88.132,114.100 88.206 C 114.234 88.289,114.266 88.258,114.183 88.123 C 113.980 87.795,113.658 87.863,113.727 88.220 M141.963 88.220 C 141.996 88.392,142.132 88.555,142.264 88.582 C 142.396 88.609,142.417 88.588,142.311 88.535 C 142.204 88.482,142.118 88.357,142.118 88.256 C 142.118 88.155,142.215 88.132,142.335 88.206 C 142.470 88.289,142.501 88.258,142.418 88.123 C 142.215 87.795,141.893 87.863,141.963 88.220 M135.041 89.253 C 134.953 89.394,134.990 89.419,135.145 89.323 C 135.284 89.237,135.452 89.284,135.548 89.435 C 135.678 89.640,135.712 89.625,135.715 89.365 C 135.718 88.996,135.248 88.917,135.041 89.253 M186.044 89.365 C 186.060 89.557,185.939 89.695,185.754 89.697 C 185.581 89.698,185.376 89.761,185.300 89.838 C 185.223 89.914,185.327 89.976,185.531 89.976 C 185.735 89.976,186.003 89.875,186.127 89.751 C 186.391 89.487,186.428 89.035,186.186 89.035 C 186.094 89.035,186.030 89.184,186.044 89.365 M144.222 91.510 C 144.288 91.955,144.843 92.396,145.061 92.178 C 145.136 92.103,145.086 91.936,144.948 91.809 C 144.749 91.624,144.725 91.625,144.831 91.812 C 144.904 91.941,144.883 92.047,144.784 92.047 C 144.556 92.047,144.342 91.503,144.481 91.277 C 144.539 91.183,144.491 91.106,144.374 91.106 C 144.258 91.106,144.189 91.288,144.222 91.510 M146.760 95.404 C 146.795 95.542,146.824 95.690,146.824 95.733 C 146.824 95.894,147.370 95.805,147.481 95.626 C 147.549 95.515,147.465 95.490,147.273 95.564 C 147.037 95.654,146.991 95.621,147.104 95.438 C 147.202 95.279,147.185 95.234,147.057 95.313 C 146.946 95.382,146.820 95.374,146.776 95.295 C 146.733 95.217,146.725 95.266,146.760 95.404 M73.896 97.425 C 73.733 97.588,73.606 97.863,73.613 98.037 C 73.623 98.283,73.669 98.263,73.821 97.949 C 73.928 97.727,74.198 97.458,74.420 97.350 C 74.734 97.198,74.753 97.152,74.508 97.142 C 74.334 97.135,74.058 97.263,73.896 97.425 M148.919 98.447 C 148.908 98.602,148.964 98.830,149.042 98.953 C 149.189 99.185,150.212 99.639,150.212 99.473 C 150.212 99.421,149.995 99.296,149.730 99.196 C 149.437 99.084,149.301 98.927,149.382 98.795 C 149.463 98.665,149.435 98.628,149.314 98.703 C 149.202 98.772,149.072 98.679,149.024 98.496 C 148.964 98.264,148.932 98.249,148.919 98.447 M149.008 103.451 C 148.834 103.906,148.872 104.282,149.093 104.282 C 149.203 104.282,149.245 104.205,149.187 104.111 C 149.008 103.822,149.303 103.313,149.587 103.422 C 149.735 103.479,149.804 103.442,149.740 103.339 C 149.563 103.053,149.136 103.118,149.008 103.451 M180.894 104.448 C 180.894 104.685,181.447 105.110,181.581 104.976 C 181.774 104.783,181.486 104.282,181.182 104.282 C 181.024 104.282,180.894 104.357,180.894 104.448 M73.606 106.667 C 73.594 107.112,73.837 107.482,74.138 107.479 C 74.330 107.478,74.370 107.424,74.243 107.338 C 74.130 107.262,73.942 107.031,73.825 106.824 C 73.708 106.616,73.609 106.546,73.606 106.667 M146.861 106.767 C 146.592 107.036,146.562 107.482,146.812 107.482 C 146.910 107.482,147.050 107.385,147.124 107.265 C 147.207 107.130,147.175 107.099,147.041 107.182 C 146.921 107.256,146.824 107.236,146.824 107.137 C 146.824 106.909,147.368 106.695,147.593 106.834 C 147.688 106.892,147.765 106.850,147.765 106.741 C 147.765 106.470,147.140 106.488,146.861 106.767 M183.711 108.133 C 183.836 108.284,183.887 108.490,183.825 108.591 C 183.763 108.691,183.798 108.827,183.903 108.892 C 184.008 108.957,184.094 108.885,184.094 108.732 C 184.094 108.296,183.884 107.859,183.674 107.859 C 183.562 107.859,183.577 107.971,183.711 108.133 M144.800 110.210 C 144.356 110.403,144.192 110.594,144.201 110.909 C 144.213 111.281,144.234 111.293,144.350 110.998 C 144.424 110.809,144.567 110.640,144.666 110.621 C 144.766 110.603,144.826 110.525,144.800 110.447 C 144.774 110.369,144.875 110.306,145.024 110.306 C 145.173 110.306,145.348 110.221,145.412 110.118 C 145.556 109.884,145.547 109.885,144.800 110.210 M95.812 111.446 C 95.812 111.556,95.889 111.598,95.983 111.540 C 96.267 111.364,96.782 111.654,96.676 111.930 C 96.621 112.072,96.659 112.188,96.759 112.188 C 97.014 112.188,96.987 111.744,96.715 111.473 C 96.436 111.194,95.812 111.175,95.812 111.446 M141.994 113.985 C 141.933 114.144,141.934 114.326,141.996 114.388 C 142.130 114.522,142.682 114.097,142.682 113.859 C 142.682 113.575,142.112 113.679,141.994 113.985 M104.722 117.545 C 104.722 117.695,104.807 117.766,104.910 117.702 C 105.028 117.630,105.047 117.722,104.962 117.946 C 104.856 118.224,104.876 118.255,105.049 118.083 C 105.284 117.851,105.166 117.271,104.884 117.271 C 104.795 117.271,104.722 117.394,104.722 117.545 M121.976 117.542 C 121.976 117.691,122.063 117.867,122.169 117.932 C 122.275 117.998,122.339 117.939,122.311 117.802 C 122.282 117.665,122.371 117.576,122.508 117.605 C 122.645 117.633,122.704 117.570,122.638 117.463 C 122.459 117.174,121.976 117.231,121.976 117.542 M130.335 117.488 C 130.248 117.629,130.284 117.654,130.439 117.558 C 130.578 117.472,130.746 117.519,130.842 117.670 C 130.972 117.875,131.007 117.861,131.009 117.600 C 131.012 117.231,130.542 117.153,130.335 117.488 M139.597 117.568 C 139.422 118.024,139.460 118.400,139.682 118.400 C 139.791 118.400,139.833 118.323,139.775 118.229 C 139.596 117.939,139.891 117.431,140.175 117.540 C 140.324 117.597,140.392 117.560,140.328 117.457 C 140.151 117.171,139.724 117.236,139.597 117.568 M189.427 117.545 C 189.427 117.695,189.512 117.766,189.616 117.702 C 189.734 117.630,189.753 117.722,189.668 117.946 C 189.562 118.224,189.582 118.255,189.755 118.083 C 189.990 117.851,189.872 117.271,189.590 117.271 C 189.501 117.271,189.427 117.394,189.427 117.545 M77.176 119.669 C 77.176 120.047,77.514 120.471,77.815 120.471 C 77.917 120.471,77.845 120.356,77.654 120.217 C 77.463 120.077,77.364 119.871,77.433 119.759 C 77.502 119.647,77.473 119.502,77.368 119.437 C 77.263 119.372,77.176 119.476,77.176 119.669 M137.449 120.885 C 137.181 121.153,137.150 121.600,137.401 121.600 C 137.498 121.600,137.638 121.502,137.712 121.383 C 137.795 121.248,137.764 121.216,137.629 121.300 C 137.510 121.374,137.412 121.353,137.412 121.255 C 137.412 121.027,137.956 120.812,138.182 120.952 C 138.276 121.010,138.353 120.968,138.353 120.858 C 138.353 120.587,137.729 120.606,137.449 120.885 M191.529 120.884 C 191.736 121.001,191.968 121.189,192.044 121.302 C 192.130 121.428,192.184 121.389,192.185 121.197 C 192.188 120.896,191.818 120.653,191.373 120.665 C 191.252 120.668,191.322 120.766,191.529 120.884 M167.718 123.151 C 167.718 123.663,168.039 124.048,168.461 124.044 C 168.693 124.042,168.701 124.009,168.502 123.882 C 168.363 123.794,168.249 123.647,168.247 123.555 C 168.246 123.463,168.158 123.413,168.052 123.443 C 167.946 123.473,167.909 123.370,167.969 123.214 C 168.029 123.058,167.997 122.880,167.898 122.818 C 167.799 122.757,167.718 122.907,167.718 123.151 M135.388 124.328 C 134.944 124.521,134.780 124.712,134.790 125.026 C 134.801 125.398,134.822 125.411,134.938 125.115 C 135.013 124.927,135.155 124.757,135.254 124.739 C 135.354 124.721,135.414 124.642,135.388 124.565 C 135.362 124.487,135.463 124.424,135.612 124.424 C 135.762 124.424,135.936 124.339,136.000 124.235 C 136.144 124.002,136.136 124.003,135.388 124.328 M169.161 125.678 C 168.916 125.924,169.040 126.306,169.365 126.303 C 169.625 126.301,169.640 126.266,169.435 126.136 C 169.292 126.045,169.234 125.877,169.305 125.762 C 169.447 125.532,169.359 125.481,169.161 125.678 M132.583 128.102 C 132.521 128.262,132.522 128.443,132.584 128.506 C 132.718 128.640,133.271 128.214,133.271 127.977 C 133.271 127.693,132.700 127.797,132.583 128.102 M197.320 130.201 C 197.502 130.248,197.595 130.379,197.526 130.490 C 197.451 130.612,197.489 130.639,197.620 130.558 C 197.751 130.477,197.908 130.596,198.013 130.858 C 198.135 131.162,198.192 131.198,198.200 130.978 C 198.215 130.567,197.707 130.065,197.304 130.092 C 197.025 130.112,197.027 130.124,197.320 130.201 M89.035 131.910 C 89.035 132.119,89.472 132.329,89.909 132.329 C 90.062 132.329,90.134 132.243,90.069 132.138 C 90.004 132.033,89.868 131.998,89.767 132.060 C 89.666 132.123,89.460 132.071,89.309 131.946 C 89.148 131.812,89.035 131.797,89.035 131.910 M129.694 132.874 C 129.694 133.001,129.596 133.044,129.477 132.970 C 129.332 132.881,129.311 132.919,129.414 133.085 C 129.526 133.268,129.481 133.301,129.245 133.211 C 129.053 133.137,128.968 133.162,129.037 133.273 C 129.216 133.563,129.641 133.492,129.773 133.150 C 129.838 132.979,129.847 132.796,129.793 132.742 C 129.738 132.687,129.694 132.747,129.694 132.874 M125.191 134.077 C 125.183 134.261,124.986 134.489,124.753 134.582 C 124.466 134.698,124.428 134.756,124.636 134.765 C 125.023 134.780,125.431 134.301,125.303 133.983 C 125.243 133.833,125.201 133.869,125.191 134.077 M173.841 134.014 C 173.678 134.277,173.885 134.588,174.223 134.588 C 174.568 134.588,174.571 134.322,174.229 134.037 C 174.047 133.887,173.924 133.879,173.841 134.014 M100.709 135.012 C 100.715 135.520,101.049 135.826,101.310 135.561 C 101.509 135.359,101.502 135.325,101.271 135.375 C 101.098 135.412,100.998 135.308,101.014 135.106 C 101.029 134.925,100.965 134.776,100.873 134.776 C 100.781 134.776,100.707 134.882,100.709 135.012 M103.296 135.851 C 103.530 135.896,103.869 135.894,104.049 135.847 C 104.229 135.800,104.038 135.763,103.624 135.765 C 103.209 135.767,103.062 135.806,103.296 135.851 M114.967 135.851 C 115.201 135.896,115.540 135.894,115.720 135.847 C 115.900 135.800,115.708 135.763,115.294 135.765 C 114.880 135.767,114.733 135.806,114.967 135.851 " stroke="none" fill="#000000" fill-rule="evenodd"></path><path id="path1" d="M361.600 39.581 C 361.600 39.622,361.861 39.888,362.180 40.172 C 362.758 40.687,362.759 40.687,362.697 40.250 C 362.663 40.009,362.508 39.810,362.353 39.807 C 362.198 39.804,361.965 39.736,361.835 39.655 C 361.706 39.573,361.600 39.541,361.600 39.581 M339.931 40.988 C 339.918 41.066,339.918 41.193,339.931 41.271 C 339.943 41.348,339.868 41.412,339.765 41.412 C 339.661 41.412,339.576 41.499,339.576 41.607 C 339.576 41.735,339.714 41.728,339.978 41.586 C 340.270 41.430,340.316 41.331,340.145 41.226 C 339.961 41.112,339.966 41.059,340.167 40.979 C 340.349 40.906,340.355 40.872,340.188 40.862 C 340.059 40.854,339.943 40.911,339.931 40.988 M337.513 42.251 C 337.388 42.401,337.335 42.606,337.397 42.705 C 337.458 42.804,337.402 42.928,337.272 42.981 C 337.124 43.040,337.115 43.082,337.248 43.091 C 337.364 43.099,337.576 42.963,337.718 42.787 C 337.937 42.517,337.937 42.493,337.717 42.625 C 337.536 42.734,337.486 42.702,337.552 42.520 C 337.604 42.376,337.742 42.280,337.859 42.306 C 337.975 42.332,338.071 42.268,338.071 42.165 C 338.071 41.889,337.775 41.935,337.513 42.251 M329.976 50.239 C 329.976 50.365,329.888 50.415,329.780 50.348 C 329.569 50.217,329.035 50.575,329.035 50.847 C 329.035 50.937,329.120 51.012,329.224 51.012 C 329.327 51.012,329.391 50.916,329.365 50.800 C 329.339 50.684,329.435 50.545,329.579 50.493 C 329.758 50.428,329.794 50.480,329.694 50.658 C 329.613 50.801,329.702 50.771,329.892 50.593 C 330.081 50.414,330.178 50.209,330.106 50.138 C 330.035 50.066,329.976 50.112,329.976 50.239 M385.690 51.675 C 385.559 51.833,385.503 52.013,385.565 52.075 C 385.758 52.268,386.259 51.980,386.259 51.676 C 386.259 51.308,385.996 51.307,385.690 51.675 M386.944 51.671 C 387.003 51.826,387.133 51.953,387.231 51.953 C 387.330 51.953,387.369 52.021,387.318 52.103 C 387.267 52.186,387.303 52.376,387.398 52.527 C 387.536 52.745,387.570 52.725,387.568 52.424 C 387.565 52.050,387.170 51.388,386.950 51.388 C 386.887 51.388,386.884 51.515,386.944 51.671 M380.719 53.002 C 380.650 53.278,380.630 53.540,380.674 53.584 C 380.718 53.628,380.811 53.439,380.881 53.163 C 380.950 52.887,380.970 52.625,380.926 52.581 C 380.882 52.536,380.789 52.726,380.719 53.002 M368.094 56.094 C 367.857 56.196,367.822 56.256,368.000 56.256 C 368.155 56.256,368.452 56.183,368.659 56.094 C 368.896 55.992,368.931 55.932,368.753 55.932 C 368.598 55.932,368.301 56.005,368.094 56.094 M360.659 57.554 C 360.659 57.657,360.786 57.848,360.941 57.976 C 361.099 58.107,361.224 58.128,361.224 58.023 C 361.224 57.919,361.096 57.729,360.941 57.600 C 360.784 57.469,360.659 57.449,360.659 57.554 M350.730 58.275 C 350.884 58.429,350.273 59.108,350.084 58.991 C 349.999 58.938,349.929 58.985,349.929 59.095 C 349.929 59.204,350.056 59.294,350.212 59.294 C 350.367 59.294,350.494 59.204,350.494 59.095 C 350.494 58.985,350.570 58.942,350.663 59.000 C 350.755 59.057,350.882 58.970,350.945 58.807 C 351.116 58.362,351.083 58.165,350.839 58.165 C 350.718 58.165,350.669 58.214,350.730 58.275 M325.524 62.220 C 325.349 62.677,325.554 62.721,325.928 62.307 C 326.240 61.962,326.242 61.929,325.953 61.929 C 325.778 61.929,325.585 62.060,325.524 62.220 M245.835 69.176 C 245.964 69.332,246.154 69.459,246.258 69.459 C 246.363 69.459,246.342 69.334,246.212 69.176 C 246.083 69.021,245.893 68.894,245.789 68.894 C 245.684 68.894,245.705 69.019,245.835 69.176 M273.506 69.062 C 273.506 69.189,273.417 69.238,273.309 69.171 C 273.098 69.041,272.565 69.398,272.565 69.670 C 272.565 69.761,272.649 69.835,272.753 69.835 C 272.856 69.835,272.920 69.740,272.894 69.624 C 272.868 69.507,272.965 69.369,273.109 69.317 C 273.287 69.252,273.324 69.304,273.223 69.481 C 273.142 69.624,273.232 69.595,273.421 69.416 C 273.611 69.238,273.707 69.033,273.636 68.961 C 273.564 68.890,273.506 68.935,273.506 69.062 M302.238 70.494 C 302.297 70.649,302.427 70.776,302.525 70.776 C 302.624 70.776,302.656 70.855,302.596 70.952 C 302.537 71.048,302.574 71.180,302.679 71.245 C 302.953 71.414,302.904 70.931,302.609 70.541 C 302.302 70.138,302.091 70.111,302.238 70.494 M304.330 71.722 C 304.526 71.952,304.684 72.018,304.727 71.889 C 304.776 71.743,304.855 71.756,304.978 71.932 C 305.124 72.140,305.142 72.135,305.073 71.906 C 305.026 71.751,304.893 71.645,304.776 71.671 C 304.660 71.696,304.565 71.633,304.565 71.529 C 304.565 71.426,304.438 71.341,304.284 71.341 C 304.051 71.341,304.058 71.405,304.330 71.722 M307.591 73.718 C 307.583 73.835,307.720 74.047,307.895 74.189 C 308.167 74.409,308.190 74.408,308.052 74.180 C 307.930 73.978,307.970 73.943,308.214 74.036 C 308.417 74.114,308.492 74.087,308.414 73.961 C 308.347 73.852,308.178 73.806,308.040 73.859 C 307.902 73.912,307.748 73.854,307.698 73.731 C 307.636 73.578,307.601 73.574,307.591 73.718 M308.518 74.635 C 308.647 74.791,308.890 74.908,309.058 74.896 C 309.317 74.877,309.313 74.861,309.035 74.788 C 308.854 74.741,308.706 74.623,308.706 74.527 C 308.706 74.431,308.611 74.353,308.495 74.353 C 308.349 74.353,308.356 74.440,308.518 74.635 M262.208 75.205 C 262.077 75.362,262.027 75.549,262.097 75.618 C 262.166 75.688,262.030 75.852,261.794 75.984 C 261.558 76.115,261.461 76.225,261.579 76.229 C 261.697 76.232,261.994 76.059,262.238 75.844 C 262.482 75.630,262.565 75.514,262.423 75.588 C 262.249 75.678,262.194 75.637,262.258 75.461 C 262.310 75.318,262.448 75.221,262.565 75.247 C 262.681 75.273,262.776 75.209,262.776 75.106 C 262.776 74.826,262.479 74.878,262.208 75.205 M312.297 78.424 C 312.289 78.541,312.426 78.753,312.601 78.895 C 312.873 79.115,312.896 79.114,312.758 78.886 C 312.636 78.684,312.676 78.649,312.920 78.742 C 313.123 78.820,313.197 78.793,313.120 78.667 C 313.053 78.558,312.884 78.512,312.746 78.565 C 312.608 78.618,312.454 78.560,312.403 78.436 C 312.342 78.284,312.307 78.280,312.297 78.424 M203.460 78.635 C 203.448 78.713,203.448 78.840,203.460 78.918 C 203.472 78.995,203.398 79.059,203.294 79.059 C 203.191 79.059,203.106 79.185,203.106 79.339 C 203.106 79.575,203.166 79.569,203.478 79.301 C 203.721 79.093,203.779 78.938,203.645 78.855 C 203.506 78.769,203.523 78.695,203.696 78.626 C 203.879 78.553,203.885 78.520,203.718 78.509 C 203.588 78.501,203.472 78.558,203.460 78.635 M246.621 78.925 C 246.469 79.109,246.508 79.175,246.782 79.196 C 246.982 79.211,247.194 79.145,247.253 79.049 C 247.313 78.952,247.217 78.930,247.038 78.999 C 246.819 79.083,246.758 79.052,246.851 78.903 C 247.034 78.606,246.873 78.622,246.621 78.925 M201.906 82.172 C 201.841 82.340,201.796 82.619,201.804 82.792 C 201.813 82.965,201.895 82.856,201.986 82.551 C 202.164 81.957,202.101 81.663,201.906 82.172 M256.276 82.353 C 256.228 82.508,256.141 82.783,256.083 82.962 C 255.993 83.241,256.031 83.234,256.338 82.915 C 256.559 82.686,256.624 82.493,256.507 82.417 C 256.402 82.349,256.520 82.254,256.769 82.207 C 257.215 82.123,257.215 82.121,256.794 82.096 C 256.558 82.082,256.325 82.198,256.276 82.353 M222.494 83.200 C 222.091 83.603,222.002 83.953,222.301 83.953 C 222.402 83.953,222.616 83.699,222.776 83.388 C 223.116 82.732,223.024 82.670,222.494 83.200 M282.407 84.838 C 282.177 85.076,282.058 85.271,282.142 85.271 C 282.326 85.271,283.011 84.539,282.901 84.460 C 282.858 84.429,282.636 84.599,282.407 84.838 M220.988 84.816 C 220.988 84.980,221.089 85.080,221.212 85.039 C 221.561 84.923,221.619 84.518,221.286 84.518 C 221.122 84.518,220.988 84.652,220.988 84.816 M221.069 88.192 C 221.268 88.343,221.477 88.421,221.534 88.364 C 221.652 88.246,221.174 87.910,220.894 87.915 C 220.791 87.916,220.869 88.041,221.069 88.192 M222.238 89.318 C 222.297 89.473,222.427 89.600,222.525 89.600 C 222.624 89.600,222.656 89.679,222.596 89.775 C 222.537 89.872,222.574 90.004,222.679 90.069 C 222.953 90.238,222.904 89.755,222.609 89.365 C 222.302 88.961,222.091 88.934,222.238 89.318 M293.881 89.459 C 293.924 89.588,294.157 89.723,294.398 89.758 C 294.800 89.817,294.812 89.797,294.538 89.523 C 294.182 89.166,293.772 89.126,293.881 89.459 M223.820 90.557 C 223.936 90.773,224.068 90.912,224.114 90.867 C 224.246 90.735,223.978 90.165,223.785 90.165 C 223.689 90.165,223.705 90.341,223.820 90.557 M253.176 90.353 C 253.176 90.456,253.081 90.520,252.965 90.494 C 252.848 90.468,252.715 90.574,252.668 90.729 C 252.599 90.958,252.617 90.963,252.763 90.755 C 252.914 90.539,252.956 90.539,253.028 90.755 C 253.087 90.933,253.182 90.882,253.340 90.588 C 253.485 90.316,253.496 90.165,253.371 90.165 C 253.264 90.165,253.176 90.249,253.176 90.353 M318.519 90.588 C 318.676 90.882,318.771 90.933,318.831 90.755 C 318.903 90.539,318.944 90.539,319.096 90.755 C 319.242 90.963,319.260 90.958,319.191 90.729 C 319.144 90.574,319.011 90.468,318.894 90.494 C 318.778 90.520,318.682 90.456,318.682 90.353 C 318.682 90.249,318.595 90.165,318.487 90.165 C 318.363 90.165,318.374 90.316,318.519 90.588 M294.782 91.059 C 294.779 91.188,294.852 91.294,294.944 91.294 C 295.036 91.294,295.099 91.400,295.085 91.529 C 295.071 91.659,295.134 91.779,295.226 91.796 C 295.318 91.813,295.462 91.937,295.545 92.073 C 295.629 92.208,295.750 92.266,295.815 92.201 C 295.880 92.136,295.675 91.800,295.360 91.453 C 295.045 91.107,294.785 90.929,294.782 91.059 M252.426 91.529 C 252.429 91.872,252.464 91.899,252.612 91.671 C 252.848 91.306,252.848 91.106,252.612 91.106 C 252.508 91.106,252.425 91.296,252.426 91.529 M228.970 92.829 C 228.881 92.973,228.919 92.995,229.082 92.894 C 229.237 92.799,229.422 92.871,229.581 93.090 C 229.721 93.280,229.835 93.353,229.835 93.250 C 229.835 92.774,229.197 92.463,228.970 92.829 M238.455 96.403 C 239.071 96.797,239.405 96.785,239.153 96.376 C 239.080 96.259,238.905 96.207,238.763 96.261 C 238.622 96.316,238.456 96.279,238.395 96.180 C 238.334 96.081,238.183 96.001,238.059 96.003 C 237.936 96.005,238.114 96.185,238.455 96.403 M240.941 97.470 C 240.941 97.744,241.472 98.355,241.600 98.228 C 241.759 98.069,241.365 97.318,241.123 97.318 C 241.023 97.318,240.941 97.386,240.941 97.470 M208.282 101.602 C 208.386 101.703,208.725 101.841,209.035 101.908 C 209.683 102.047,209.325 101.777,208.565 101.555 C 208.256 101.464,208.159 101.480,208.282 101.602 M215.912 105.728 C 215.904 106.014,216.433 106.543,216.719 106.535 C 216.841 106.532,216.796 106.445,216.618 106.341 C 216.440 106.238,216.210 106.007,216.106 105.829 C 216.002 105.651,215.915 105.606,215.912 105.728 M250.353 106.882 C 250.353 107.156,250.884 107.767,251.012 107.639 C 251.170 107.481,250.776 106.729,250.535 106.729 C 250.435 106.729,250.353 106.798,250.353 106.882 M274.635 109.188 C 274.635 109.297,274.705 109.344,274.790 109.291 C 274.979 109.175,275.590 109.853,275.436 110.008 C 275.375 110.068,275.424 110.118,275.545 110.118 C 275.789 110.118,275.822 109.921,275.651 109.475 C 275.588 109.312,275.461 109.225,275.369 109.283 C 275.276 109.340,275.200 109.297,275.200 109.188 C 275.200 109.078,275.073 108.988,274.918 108.988 C 274.762 108.988,274.635 109.078,274.635 109.188 M231.012 112.318 C 231.193 112.365,231.341 112.483,231.341 112.579 C 231.341 112.674,231.484 112.753,231.660 112.753 C 231.937 112.753,231.931 112.718,231.612 112.477 C 231.411 112.325,231.120 112.207,230.965 112.216 C 230.767 112.227,230.781 112.258,231.012 112.318 M388.329 113.954 C 388.329 114.110,388.414 114.289,388.518 114.353 C 388.621 114.417,388.706 114.342,388.706 114.187 C 388.706 114.032,388.621 113.852,388.518 113.788 C 388.414 113.724,388.329 113.799,388.329 113.954 M318.139 114.573 C 318.127 114.694,318.063 114.948,317.996 115.138 C 317.901 115.405,317.926 115.434,318.108 115.267 C 318.236 115.149,318.301 114.895,318.251 114.702 C 318.202 114.510,318.151 114.452,318.139 114.573 M393.559 117.221 C 394.106 117.259,394.953 117.259,395.442 117.220 C 395.930 117.182,395.482 117.151,394.447 117.151 C 393.412 117.152,393.012 117.183,393.559 117.221 M290.454 117.545 C 290.329 117.695,290.277 117.900,290.338 117.999 C 290.399 118.098,290.343 118.223,290.213 118.275 C 290.066 118.334,290.056 118.376,290.189 118.385 C 290.305 118.393,290.517 118.257,290.659 118.082 C 290.879 117.811,290.878 117.787,290.658 117.919 C 290.477 118.028,290.427 117.996,290.493 117.814 C 290.545 117.671,290.684 117.574,290.800 117.600 C 290.916 117.626,291.012 117.562,291.012 117.459 C 291.012 117.184,290.716 117.229,290.454 117.545 M208.753 118.599 C 208.753 118.709,208.823 118.756,208.908 118.703 C 209.096 118.586,209.708 119.265,209.553 119.419 C 209.493 119.480,209.542 119.529,209.663 119.529 C 209.907 119.529,209.939 119.332,209.769 118.887 C 209.706 118.724,209.579 118.637,209.486 118.695 C 209.393 118.752,209.318 118.709,209.318 118.599 C 209.318 118.490,209.191 118.400,209.035 118.400 C 208.880 118.400,208.753 118.490,208.753 118.599 M212.562 119.783 C 212.741 119.923,212.826 120.106,212.750 120.190 C 212.674 120.274,212.718 120.282,212.847 120.207 C 212.993 120.124,213.082 120.184,213.082 120.365 C 213.082 120.527,213.167 120.659,213.271 120.659 C 213.746 120.659,213.213 119.842,212.612 119.649 C 212.264 119.538,212.260 119.548,212.562 119.783 M217.976 120.802 C 217.976 120.880,218.155 121.056,218.373 121.192 C 218.670 121.378,218.733 121.381,218.624 121.205 C 218.522 121.040,218.574 121.008,218.802 121.095 C 219.006 121.173,219.080 121.145,219.003 121.020 C 218.935 120.911,218.761 120.867,218.616 120.922 C 218.471 120.978,218.353 120.941,218.353 120.841 C 218.353 120.741,218.268 120.659,218.165 120.659 C 218.061 120.659,217.976 120.723,217.976 120.802 M250.354 122.352 C 249.995 122.856,249.988 122.902,250.294 122.796 C 250.862 122.598,251.374 121.788,250.930 121.788 C 250.834 121.788,250.575 122.042,250.354 122.352 M202.541 123.294 C 202.541 123.398,202.446 123.461,202.329 123.435 C 202.213 123.409,202.079 123.494,202.031 123.624 C 201.984 123.753,202.070 123.859,202.223 123.859 C 202.376 123.859,202.552 123.726,202.614 123.565 C 202.676 123.403,202.812 123.323,202.916 123.387 C 203.021 123.452,203.106 123.415,203.106 123.305 C 203.106 123.196,202.979 123.106,202.824 123.106 C 202.668 123.106,202.541 123.191,202.541 123.294 M366.682 123.420 C 366.682 123.601,367.315 124.034,367.588 124.041 C 367.723 124.044,367.781 123.961,367.716 123.856 C 367.651 123.751,367.519 123.713,367.422 123.773 C 367.326 123.832,367.247 123.800,367.247 123.702 C 367.247 123.603,367.120 123.474,366.965 123.414 C 366.809 123.355,366.682 123.357,366.682 123.420 M258.502 124.659 C 258.549 124.788,258.684 124.873,258.800 124.847 C 258.916 124.821,259.012 124.885,259.012 124.988 C 259.012 125.092,259.139 125.176,259.294 125.176 C 259.449 125.176,259.576 125.087,259.576 124.977 C 259.576 124.867,259.491 124.831,259.387 124.895 C 259.283 124.959,259.147 124.880,259.084 124.718 C 259.022 124.556,258.846 124.424,258.694 124.424 C 258.541 124.424,258.455 124.529,258.502 124.659 M259.859 126.306 C 260.066 126.395,260.362 126.468,260.518 126.468 C 260.696 126.468,260.661 126.408,260.424 126.306 C 260.216 126.217,259.920 126.144,259.765 126.144 C 259.587 126.144,259.622 126.204,259.859 126.306 M262.024 128.182 C 262.024 128.423,262.775 128.817,262.933 128.659 C 263.002 128.590,262.894 128.414,262.693 128.267 C 262.268 127.956,262.024 127.925,262.024 128.182 M300.981 132.886 C 300.560 133.246,300.433 133.446,300.623 133.451 C 300.996 133.461,301.467 133.085,301.615 132.659 C 301.765 132.227,301.744 132.234,300.981 132.886 M203.482 133.176 C 203.742 133.490,204.327 133.571,204.139 133.268 C 204.074 133.162,203.942 133.125,203.846 133.185 C 203.749 133.244,203.671 133.203,203.671 133.093 C 203.671 132.984,203.576 132.894,203.459 132.894 C 203.313 132.894,203.320 132.981,203.482 133.176 M272.620 134.071 C 272.667 134.200,272.801 134.285,272.918 134.259 C 273.034 134.233,273.129 134.296,273.129 134.400 C 273.129 134.504,273.256 134.588,273.412 134.588 C 273.567 134.588,273.694 134.499,273.694 134.389 C 273.694 134.279,273.609 134.242,273.505 134.307 C 273.400 134.371,273.264 134.291,273.202 134.130 C 273.140 133.968,272.964 133.835,272.811 133.835 C 272.658 133.835,272.572 133.941,272.620 134.071 M325.459 134.094 C 325.459 134.269,325.590 134.462,325.749 134.523 C 326.206 134.699,326.250 134.493,325.836 134.119 C 325.492 133.807,325.459 133.805,325.459 134.094 M277.271 135.130 C 277.271 135.361,277.687 135.664,278.024 135.678 C 278.179 135.685,278.518 135.741,278.776 135.803 L 279.247 135.917 278.787 135.715 C 278.533 135.605,278.199 135.412,278.045 135.287 C 277.817 135.103,277.793 135.109,277.919 135.319 C 278.028 135.499,277.996 135.549,277.814 135.483 C 277.671 135.431,277.574 135.293,277.600 135.176 C 277.626 135.060,277.562 134.965,277.459 134.965 C 277.355 134.965,277.271 135.039,277.271 135.130 M227.718 135.850 C 227.951 135.895,228.332 135.895,228.565 135.850 C 228.798 135.806,228.607 135.769,228.141 135.769 C 227.675 135.769,227.485 135.806,227.718 135.850 " stroke="none" fill="#555555" fill-rule="evenodd"></path><path id="path2" d="" stroke="none" fill="#ffffff" fill-rule="evenodd"></path><path id="path3" d="M27.947 43.388 C 27.899 43.544,27.819 43.798,27.771 43.953 C 27.699 44.183,27.275 44.235,25.502 44.235 L 23.322 44.235 23.125 44.800 C 22.936 45.341,22.882 45.365,21.817 45.365 C 21.160 45.365,20.706 45.446,20.706 45.564 C 20.706 45.674,20.629 45.716,20.535 45.658 C 20.309 45.518,19.765 45.732,19.765 45.961 C 19.765 46.059,19.871 46.086,20.000 46.021 C 20.129 45.955,20.071 46.035,19.870 46.198 C 19.669 46.361,19.326 46.494,19.108 46.494 C 18.590 46.494,18.259 46.839,18.259 47.379 C 18.259 47.732,18.157 47.812,17.706 47.812 C 16.852 47.812,16.131 48.145,16.260 48.480 C 16.384 48.802,15.958 49.018,15.012 49.115 C 14.934 49.123,14.871 49.341,14.871 49.600 C 14.871 49.859,14.786 50.081,14.682 50.094 C 14.579 50.107,14.409 50.139,14.306 50.165 C 14.202 50.191,14.033 50.222,13.929 50.235 C 13.826 50.248,13.741 50.422,13.741 50.622 C 13.741 50.822,13.618 51.108,13.468 51.258 C 13.317 51.409,13.251 51.589,13.321 51.658 C 13.390 51.728,13.313 51.733,13.148 51.670 C 12.834 51.549,12.524 52.035,12.716 52.346 C 12.775 52.441,12.733 52.518,12.623 52.518 C 12.513 52.518,12.424 52.772,12.424 53.082 C 12.424 53.448,12.324 53.655,12.141 53.671 C 11.986 53.684,11.753 53.705,11.624 53.718 C 11.473 53.733,11.368 54.130,11.332 54.824 C 11.301 55.419,11.195 55.916,11.096 55.929 C 10.998 55.942,10.833 55.974,10.729 56.000 C 10.626 56.026,10.456 56.058,10.353 56.071 C 10.249 56.084,10.165 56.641,10.165 57.312 C 10.165 58.266,10.109 58.508,9.907 58.430 C 9.567 58.300,9.043 58.838,9.007 59.355 C 8.991 59.580,8.958 59.849,8.934 59.953 C 8.910 60.056,8.881 61.597,8.869 63.376 L 8.847 66.610 8.329 66.670 C 7.752 66.736,7.774 66.666,7.741 68.612 L 7.718 70.024 3.859 70.024 L 0.000 70.024 0.000 77.082 L 0.000 84.141 3.859 84.141 L 7.718 84.141 7.740 108.847 C 7.752 122.435,7.749 133.659,7.732 133.788 C 7.715 133.918,7.790 134.024,7.898 134.024 C 8.006 134.024,8.073 134.122,8.047 134.243 C 7.947 134.709,27.336 135.110,28.494 134.665 C 28.774 134.558,28.800 132.448,28.800 109.354 L 28.800 84.160 35.090 84.104 C 38.550 84.072,41.439 83.989,41.510 83.917 C 41.679 83.748,41.679 70.417,41.510 70.247 C 41.439 70.176,38.550 70.092,35.090 70.061 L 28.800 70.005 28.800 68.249 L 28.800 66.494 29.365 66.381 L 29.929 66.268 29.929 64.569 C 29.929 62.877,29.931 62.871,30.406 62.871 C 30.922 62.871,31.108 62.568,31.233 61.527 C 31.241 61.461,31.394 61.418,31.574 61.433 C 31.755 61.447,31.983 61.276,32.083 61.052 C 32.182 60.828,32.522 60.571,32.838 60.481 C 33.222 60.371,33.432 60.179,33.472 59.900 L 33.532 59.482 38.102 59.482 C 42.484 59.482,43.315 59.393,43.895 58.857 C 43.915 58.839,43.978 57.299,44.036 55.435 C 44.136 52.208,44.159 52.047,44.518 52.047 C 44.727 52.047,44.894 51.922,44.894 51.765 C 44.894 51.609,44.979 51.422,45.082 51.348 C 45.348 51.159,45.447 45.404,45.197 44.753 L 44.998 44.235 42.745 44.235 C 40.597 44.235,40.203 44.143,40.191 43.639 C 40.190 43.570,40.111 43.443,40.017 43.357 C 39.916 43.265,39.903 43.316,39.984 43.482 C 40.067 43.652,40.015 43.634,39.852 43.435 C 39.470 42.969,28.092 42.924,27.947 43.388 M48.941 89.859 C 48.941 127.774,48.980 134.386,49.205 134.573 C 49.728 135.007,70.559 134.764,70.884 134.319 C 71.236 133.838,71.294 46.044,70.942 45.620 C 70.768 45.410,68.782 45.365,59.836 45.365 L 48.941 45.365 48.941 89.859 M98.704 67.911 C 98.587 67.986,98.459 68.216,98.420 68.424 C 98.356 68.763,98.177 68.805,96.610 68.854 C 95.587 68.886,94.871 68.987,94.871 69.101 C 94.871 69.206,94.794 69.245,94.699 69.187 C 94.410 69.008,93.902 69.303,94.011 69.587 C 94.067 69.735,94.030 69.804,93.927 69.740 C 93.825 69.677,93.741 69.703,93.741 69.798 C 93.741 69.893,93.296 70.024,92.753 70.088 C 91.753 70.207,91.193 70.619,91.378 71.100 C 91.444 71.272,91.250 71.341,90.707 71.341 C 90.213 71.341,89.832 71.461,89.630 71.679 C 89.458 71.866,89.402 71.887,89.506 71.727 C 89.671 71.471,89.653 71.467,89.356 71.701 C 89.170 71.847,89.062 72.080,89.115 72.218 C 89.184 72.400,89.026 72.471,88.554 72.471 C 87.974 72.471,87.883 72.537,87.784 73.035 C 87.697 73.468,87.568 73.600,87.235 73.600 C 86.995 73.600,86.745 73.686,86.680 73.791 C 86.615 73.897,86.491 73.939,86.404 73.885 C 86.189 73.752,85.647 73.974,85.647 74.196 C 85.647 74.295,85.753 74.322,85.882 74.256 C 86.012 74.190,85.969 74.258,85.788 74.407 C 85.607 74.555,85.459 74.778,85.459 74.902 C 85.459 75.027,85.369 75.072,85.259 75.004 C 84.988 74.837,84.292 75.490,84.411 75.800 C 84.463 75.936,84.412 76.047,84.297 76.047 C 84.182 76.047,83.967 76.195,83.819 76.376 C 83.670 76.558,83.602 76.600,83.668 76.471 C 83.733 76.341,83.706 76.235,83.608 76.235 C 83.390 76.235,83.163 76.775,83.292 76.985 C 83.399 77.158,82.829 77.458,82.259 77.529 C 82.155 77.542,82.071 77.643,82.071 77.752 C 82.071 77.862,82.176 77.890,82.306 77.814 C 82.435 77.738,82.393 77.846,82.212 78.053 C 82.031 78.260,81.882 78.656,81.882 78.932 C 81.882 79.243,81.775 79.444,81.600 79.459 C 81.445 79.472,81.212 79.493,81.082 79.506 C 80.953 79.519,80.821 79.805,80.788 80.141 C 80.736 80.679,80.662 80.753,80.176 80.753 C 79.786 80.753,79.615 80.850,79.595 81.082 C 79.579 81.264,79.547 81.496,79.522 81.600 C 79.498 81.704,79.469 82.058,79.457 82.387 C 79.439 82.895,79.356 82.996,78.918 83.046 C 78.495 83.095,78.390 83.211,78.344 83.677 C 78.307 84.051,78.145 84.310,77.873 84.430 C 77.429 84.625,77.394 84.742,77.242 86.541 C 77.173 87.365,77.063 87.725,76.877 87.741 C 76.731 87.754,76.506 87.775,76.376 87.788 C 76.211 87.805,76.125 88.330,76.087 89.553 C 76.057 90.511,75.973 91.301,75.899 91.309 C 74.776 91.429,74.763 91.472,74.742 95.093 C 74.731 97.089,74.696 97.303,74.369 97.407 C 73.752 97.603,73.617 98.498,73.617 102.400 C 73.617 106.302,73.752 107.197,74.369 107.393 C 74.683 107.493,74.957 111.060,74.754 112.417 C 74.682 112.897,75.140 113.506,75.572 113.506 C 76.045 113.506,76.047 113.514,76.047 115.200 C 76.047 116.188,76.125 116.904,76.235 116.918 C 76.339 116.931,76.508 116.962,76.612 116.988 C 76.715 117.014,76.885 117.046,76.988 117.059 C 77.092 117.072,77.176 117.586,77.176 118.201 C 77.176 118.816,77.257 119.369,77.356 119.430 C 77.455 119.491,77.489 119.665,77.431 119.815 C 77.364 119.991,77.501 120.155,77.816 120.275 C 78.196 120.419,78.306 120.590,78.306 121.035 C 78.306 121.523,78.391 121.626,78.871 121.722 C 79.310 121.810,79.435 121.936,79.435 122.288 C 79.435 122.840,79.926 124.062,80.133 124.028 C 80.590 123.951,80.753 124.104,80.753 124.612 C 80.753 124.978,80.852 125.185,81.035 125.200 C 81.191 125.213,81.424 125.234,81.553 125.247 C 81.682 125.260,81.815 125.507,81.849 125.796 C 81.895 126.203,82.030 126.345,82.450 126.429 C 82.860 126.511,83.005 126.657,83.048 127.033 C 83.095 127.433,83.226 127.548,83.725 127.624 C 84.066 127.675,84.341 127.781,84.337 127.859 C 84.294 128.675,84.343 128.753,84.894 128.753 C 85.205 128.753,85.469 128.838,85.482 128.941 C 85.495 129.045,85.516 129.207,85.529 129.302 C 85.583 129.692,85.851 129.813,87.106 130.014 C 87.589 130.091,87.718 130.202,87.718 130.542 C 87.718 130.971,88.034 131.200,88.630 131.200 C 88.804 131.200,89.030 131.391,89.132 131.624 C 89.234 131.856,89.460 132.048,89.634 132.049 C 89.808 132.051,90.012 132.114,90.089 132.191 C 90.165 132.267,90.716 132.329,91.313 132.329 C 92.357 132.329,92.401 132.349,92.458 132.847 L 92.518 133.365 94.259 133.419 C 95.962 133.472,96.000 133.483,96.000 133.930 C 96.000 134.302,96.670 134.960,96.894 134.808 C 97.187 134.611,101.054 134.819,100.974 135.029 C 100.694 135.758,101.224 135.810,109.269 135.851 C 117.486 135.892,118.081 135.847,118.178 135.187 C 118.237 134.785,118.298 134.776,121.224 134.776 C 124.515 134.776,125.070 134.662,125.250 133.943 C 125.370 133.466,125.398 133.459,127.141 133.459 C 129.184 133.459,129.473 133.382,129.704 132.774 C 129.797 132.530,130.023 132.331,130.207 132.332 C 130.419 132.334,130.463 132.386,130.327 132.473 C 129.892 132.754,130.119 134.272,130.635 134.531 C 131.160 134.795,152.567 134.879,153.771 134.623 C 154.431 134.482,154.441 134.464,154.667 133.035 C 154.745 132.546,154.875 132.329,155.093 132.329 C 155.638 132.329,155.859 131.909,155.859 130.869 C 155.859 130.314,155.922 129.898,156.000 129.943 C 156.539 130.261,156.988 129.680,156.988 128.665 C 156.988 127.677,157.013 127.624,157.463 127.624 C 158.022 127.624,158.306 127.051,158.306 125.923 C 158.306 125.415,158.378 125.215,158.541 125.275 C 159.094 125.477,159.390 124.896,159.421 123.542 C 159.433 123.032,159.513 122.934,159.953 122.883 C 160.442 122.827,160.474 122.764,160.526 121.763 C 160.579 120.756,160.610 120.697,161.138 120.591 C 161.680 120.483,161.694 120.451,161.694 119.346 C 161.694 118.288,161.723 118.212,162.127 118.212 C 162.779 118.212,163.012 117.855,163.012 116.856 C 163.012 116.086,163.066 115.953,163.379 115.953 C 163.581 115.953,163.832 115.805,163.938 115.624 C 164.102 115.342,164.131 115.369,164.135 115.812 C 164.142 116.406,164.799 117.159,165.182 117.012 C 165.382 116.936,165.454 117.181,165.497 118.080 C 165.550 119.192,165.577 119.250,166.062 119.306 C 166.539 119.361,166.574 119.429,166.626 120.427 C 166.677 121.385,166.729 121.501,167.152 121.601 C 167.421 121.664,167.647 121.867,167.681 122.079 C 167.713 122.281,167.790 122.574,167.852 122.729 C 167.915 122.885,167.949 123.114,167.929 123.239 C 167.909 123.363,168.099 123.600,168.350 123.765 C 168.674 123.977,168.844 124.309,168.933 124.906 C 169.003 125.369,169.138 125.700,169.233 125.641 C 169.329 125.582,169.357 125.665,169.295 125.826 C 169.190 126.101,169.258 126.147,169.835 126.193 C 169.965 126.203,170.113 126.508,170.165 126.871 C 170.243 127.421,170.344 127.539,170.776 127.589 C 171.267 127.645,171.495 128.483,171.313 129.562 C 171.300 129.644,171.544 129.801,171.856 129.910 C 172.356 130.084,172.424 130.194,172.424 130.842 C 172.424 131.555,172.914 132.329,173.365 132.329 C 173.468 132.329,173.553 132.536,173.553 132.789 C 173.553 133.042,173.634 133.298,173.733 133.360 C 173.832 133.421,173.870 133.582,173.819 133.717 C 173.767 133.852,173.876 134.083,174.062 134.229 C 174.359 134.462,174.377 134.459,174.212 134.203 C 174.108 134.043,174.181 134.085,174.374 134.297 C 174.719 134.676,196.365 135.035,197.788 134.685 C 198.617 134.481,198.318 130.538,197.457 130.313 C 197.251 130.259,197.082 130.062,197.082 129.876 C 197.082 129.258,196.859 128.941,196.424 128.941 C 196.085 128.941,195.974 128.812,195.896 128.329 C 195.842 127.993,195.755 127.548,195.702 127.341 C 195.649 127.134,195.599 126.901,195.591 126.824 C 195.583 126.746,195.365 126.682,195.106 126.682 C 194.694 126.682,194.635 126.601,194.635 126.024 C 194.635 125.417,194.590 125.365,194.071 125.365 C 193.541 125.365,193.504 125.318,193.482 124.612 C 193.469 124.198,193.438 123.774,193.412 123.671 C 193.386 123.567,193.354 123.398,193.341 123.294 C 193.328 123.191,193.106 123.106,192.847 123.106 C 192.479 123.106,192.376 123.010,192.376 122.663 C 192.376 121.944,191.994 121.059,191.634 120.944 C 191.450 120.886,191.221 120.565,191.126 120.231 C 190.993 119.764,190.834 119.610,190.441 119.564 C 189.987 119.511,189.929 119.426,189.929 118.806 C 189.929 118.024,189.453 117.196,189.085 117.338 C 188.924 117.399,188.804 117.184,188.726 116.692 C 188.661 116.286,188.545 115.964,188.468 115.976 C 187.908 116.063,187.711 115.897,187.609 115.247 C 187.392 113.879,187.353 113.788,186.948 113.728 C 186.671 113.687,186.541 113.534,186.541 113.248 C 186.541 112.709,186.204 112.376,185.656 112.376 C 185.257 112.376,185.224 112.296,185.224 111.336 C 185.224 110.332,185.205 110.293,184.659 110.184 C 184.198 110.091,184.094 109.977,184.094 109.561 C 184.094 109.280,184.032 108.989,183.955 108.912 C 183.879 108.836,183.815 108.631,183.814 108.457 C 183.813 108.283,183.633 108.063,183.414 107.966 C 183.195 107.870,182.914 107.510,182.790 107.166 C 182.640 106.752,182.441 106.541,182.200 106.541 C 181.946 106.541,181.835 106.411,181.835 106.112 C 181.835 105.877,181.689 105.474,181.509 105.218 C 181.330 104.962,181.196 104.711,181.211 104.659 C 181.227 104.607,181.190 104.522,181.131 104.471 C 181.071 104.419,181.090 104.504,181.174 104.659 C 181.258 104.814,181.144 104.754,180.922 104.526 C 180.700 104.297,180.518 103.895,180.518 103.631 C 180.518 103.342,180.406 103.144,180.235 103.129 C 180.080 103.116,179.847 103.095,179.718 103.082 C 179.588 103.069,179.460 102.847,179.432 102.588 C 179.278 101.161,179.186 100.931,178.724 100.816 C 178.128 100.666,178.015 99.388,178.598 99.388 C 179.057 99.388,179.388 99.024,179.388 98.518 C 179.388 98.207,179.532 98.069,179.953 97.976 C 180.496 97.857,180.518 97.813,180.518 96.832 C 180.518 95.830,180.528 95.812,181.067 95.812 C 181.525 95.812,181.638 95.717,181.741 95.247 C 181.825 94.866,181.979 94.682,182.216 94.682 C 182.675 94.682,182.771 94.500,182.904 93.379 C 183.003 92.544,183.068 92.438,183.507 92.387 C 183.909 92.340,184.011 92.218,184.058 91.729 C 184.106 91.235,184.206 91.118,184.623 91.070 C 185.043 91.022,185.145 90.899,185.224 90.353 C 185.295 89.851,185.407 89.694,185.694 89.694 C 185.903 89.694,186.071 89.569,186.071 89.412 C 186.071 89.256,186.176 89.017,186.306 88.881 C 186.435 88.744,186.541 88.387,186.541 88.087 C 186.541 87.730,186.623 87.571,186.776 87.627 C 187.141 87.761,187.498 87.447,187.534 86.962 C 187.554 86.700,187.778 86.402,188.088 86.226 C 188.375 86.063,188.610 85.861,188.611 85.777 C 188.611 85.693,188.506 85.687,188.376 85.762 C 188.247 85.838,188.289 85.731,188.471 85.523 C 188.652 85.316,188.800 84.921,188.800 84.644 C 188.800 84.367,188.885 84.131,188.988 84.118 C 189.092 84.105,189.261 84.073,189.365 84.047 C 189.468 84.021,189.638 83.989,189.741 83.976 C 189.845 83.964,189.929 83.699,189.929 83.388 C 189.929 83.078,190.014 82.813,190.118 82.800 C 190.221 82.787,190.384 82.766,190.478 82.753 C 190.868 82.700,190.990 82.431,191.190 81.176 C 191.258 80.754,191.391 80.565,191.621 80.565 C 192.010 80.565,192.308 80.245,192.404 79.726 C 192.443 79.519,192.678 79.309,192.942 79.248 C 193.366 79.148,193.417 79.033,193.468 78.063 C 193.523 77.011,193.536 76.988,194.080 76.988 C 194.569 76.988,194.635 76.922,194.635 76.436 C 194.635 75.975,194.720 75.874,195.147 75.824 C 195.540 75.778,195.699 75.624,195.832 75.157 C 195.927 74.823,196.160 74.501,196.350 74.441 C 196.675 74.337,197.079 73.334,197.081 72.624 C 197.082 72.419,197.264 72.286,197.600 72.248 L 198.118 72.188 198.118 70.588 L 198.118 68.988 186.541 68.988 L 174.965 68.988 174.907 69.589 C 174.859 70.082,174.759 70.199,174.342 70.247 C 173.881 70.301,173.820 70.404,173.664 71.388 C 173.569 71.984,173.424 72.471,173.342 72.471 C 172.948 72.471,172.424 73.340,172.424 73.994 C 172.424 74.601,172.350 74.718,171.859 74.889 C 171.324 75.076,171.294 75.141,171.294 76.119 C 171.294 77.105,171.271 77.154,170.776 77.211 C 170.286 77.267,170.256 77.328,170.202 78.353 C 170.171 78.948,170.087 79.442,170.014 79.450 C 169.172 79.542,169.050 79.622,168.948 80.151 C 168.861 80.606,168.501 81.318,168.359 81.318 C 168.305 81.318,168.312 81.233,168.376 81.129 C 168.440 81.026,168.412 80.941,168.314 80.941 C 168.085 80.941,167.871 81.485,168.010 81.711 C 168.069 81.805,168.027 81.882,167.917 81.882 C 167.807 81.882,167.718 82.169,167.718 82.519 C 167.718 82.996,167.624 83.181,167.343 83.254 C 166.921 83.364,166.588 84.088,166.588 84.895 C 166.588 85.411,166.338 85.732,165.929 85.738 C 165.826 85.740,165.741 85.840,165.741 85.961 C 165.741 86.082,165.678 86.244,165.600 86.322 C 165.522 86.399,165.446 86.809,165.431 87.231 C 165.408 87.851,165.388 87.890,165.328 87.435 C 165.288 87.125,165.203 86.744,165.140 86.588 C 165.076 86.433,165.016 86.179,165.006 86.024 C 164.996 85.868,164.839 85.753,164.657 85.768 C 164.441 85.785,164.290 85.622,164.222 85.297 C 164.062 84.527,163.856 84.241,163.416 84.175 C 163.068 84.123,163.012 83.991,163.012 83.225 C 163.012 82.238,162.777 81.882,162.127 81.882 C 161.723 81.882,161.694 81.806,161.694 80.753 C 161.694 79.603,161.575 79.464,160.706 79.601 C 160.628 79.613,160.564 79.306,160.562 78.918 C 160.558 77.833,160.383 77.407,159.888 77.283 C 159.639 77.220,159.425 77.044,159.412 76.891 C 159.399 76.737,159.378 76.506,159.365 76.376 C 159.352 76.247,159.108 76.114,158.824 76.082 C 158.344 76.026,158.306 75.959,158.306 75.175 C 158.306 74.090,158.041 73.600,157.452 73.600 C 157.040 73.600,156.986 73.515,156.965 72.847 C 156.927 71.646,156.782 71.341,156.249 71.341 C 155.983 71.341,155.886 71.150,155.810 70.475 C 155.630 68.878,156.582 68.995,143.301 68.937 C 133.922 68.896,131.477 68.935,131.351 69.125 C 131.191 69.367,131.185 71.611,131.343 72.047 C 131.390 72.176,131.669 72.282,131.964 72.282 C 132.483 72.282,132.501 72.314,132.555 73.365 C 132.592 74.059,132.696 74.456,132.847 74.471 C 132.976 74.484,133.209 74.505,133.365 74.518 C 133.527 74.531,133.647 74.725,133.647 74.974 C 133.647 75.493,133.974 75.859,134.438 75.859 C 134.756 75.859,134.902 76.462,134.791 77.318 C 134.774 77.447,134.848 77.553,134.956 77.553 C 135.065 77.553,135.132 77.657,135.106 77.784 C 135.080 77.911,135.249 78.044,135.482 78.079 C 135.776 78.124,135.906 78.273,135.906 78.564 C 135.906 79.103,136.243 79.435,136.791 79.435 C 137.144 79.435,137.224 79.537,137.224 79.988 C 137.224 80.809,137.558 81.562,137.869 81.443 C 138.150 81.335,138.353 81.682,138.353 82.268 C 138.353 82.584,139.055 83.150,139.294 83.027 C 139.346 83.000,139.449 83.334,139.523 83.768 C 139.671 84.635,139.953 85.082,140.352 85.082 C 140.495 85.082,140.622 85.167,140.635 85.271 C 140.648 85.374,140.680 85.544,140.706 85.647 C 140.732 85.751,140.764 85.962,140.776 86.118 C 140.792 86.301,140.999 86.400,141.365 86.400 C 141.889 86.400,141.929 86.449,141.929 87.085 C 141.929 87.509,142.055 87.873,142.259 88.040 C 142.440 88.189,142.482 88.257,142.353 88.191 C 142.224 88.126,142.118 88.153,142.118 88.251 C 142.118 88.479,142.662 88.694,142.888 88.554 C 142.982 88.496,143.069 88.665,143.082 88.930 C 143.095 89.195,143.116 89.518,143.129 89.647 C 143.142 89.776,143.386 89.909,143.671 89.942 C 144.104 89.992,144.188 90.091,144.188 90.554 C 144.188 90.857,144.278 91.106,144.388 91.106 C 144.497 91.106,144.539 91.183,144.481 91.277 C 144.342 91.503,144.556 92.047,144.784 92.047 C 144.883 92.047,144.903 91.949,144.829 91.830 C 144.749 91.700,144.777 91.663,144.898 91.738 C 145.010 91.807,145.200 92.160,145.319 92.522 C 145.539 93.189,146.115 93.664,146.451 93.456 C 146.558 93.390,146.635 93.619,146.635 94.000 C 146.635 94.916,146.954 95.686,147.282 95.560 C 147.554 95.456,148.030 96.425,147.813 96.642 C 147.753 96.702,147.972 96.845,148.299 96.959 C 148.738 97.112,148.894 97.282,148.894 97.606 C 148.894 98.354,149.242 99.010,149.739 99.199 C 150.001 99.299,150.204 99.445,150.191 99.525 C 150.074 100.241,150.237 100.518,150.776 100.518 C 151.296 100.518,151.341 100.570,151.341 101.176 C 151.341 101.749,151.281 101.835,150.883 101.835 C 150.530 101.835,150.370 101.987,150.186 102.494 C 150.055 102.856,149.875 103.153,149.786 103.153 C 149.698 103.153,149.677 103.237,149.740 103.339 C 149.804 103.442,149.735 103.479,149.587 103.422 C 149.303 103.313,149.008 103.822,149.187 104.111 C 149.245 104.205,149.203 104.282,149.093 104.282 C 148.984 104.282,148.894 104.536,148.894 104.847 C 148.894 105.283,148.810 105.412,148.524 105.412 C 148.113 105.412,147.765 105.929,147.765 106.540 C 147.765 106.760,147.688 106.892,147.593 106.834 C 147.368 106.695,146.824 106.909,146.824 107.137 C 146.824 107.236,146.929 107.263,147.059 107.197 C 147.188 107.132,147.159 107.190,146.993 107.327 C 146.649 107.612,146.635 107.655,146.635 108.424 C 146.635 108.925,146.573 108.988,146.071 108.988 C 145.669 108.988,145.498 109.083,145.477 109.318 C 145.461 109.499,145.440 109.765,145.429 109.908 C 145.418 110.052,145.218 110.240,144.984 110.327 C 144.533 110.494,144.188 111.174,144.188 111.900 C 144.188 112.219,144.034 112.393,143.624 112.536 C 143.205 112.682,143.059 112.852,143.059 113.191 C 143.059 113.617,142.577 114.224,142.324 114.118 C 142.262 114.092,142.212 114.148,142.212 114.243 C 142.212 114.338,142.148 114.479,142.071 114.557 C 141.993 114.635,141.929 114.980,141.929 115.325 C 141.929 115.865,141.865 115.953,141.471 115.953 C 141.118 115.953,140.958 116.104,140.774 116.612 C 140.643 116.974,140.463 117.271,140.375 117.271 C 140.286 117.271,140.265 117.354,140.328 117.457 C 140.392 117.560,140.324 117.597,140.175 117.540 C 139.891 117.431,139.596 117.939,139.775 118.229 C 139.833 118.323,139.791 118.400,139.682 118.400 C 139.572 118.400,139.482 118.654,139.482 118.965 C 139.482 119.401,139.398 119.529,139.113 119.529 C 138.701 119.529,138.353 120.047,138.353 120.658 C 138.353 120.878,138.276 121.010,138.182 120.952 C 137.956 120.812,137.412 121.027,137.412 121.255 C 137.412 121.353,137.518 121.380,137.647 121.315 C 137.776 121.249,137.728 121.321,137.540 121.475 C 137.352 121.628,137.204 121.804,137.211 121.865 C 137.322 122.854,137.210 123.106,136.659 123.106 C 136.257 123.106,136.086 123.201,136.065 123.435 C 136.050 123.616,136.028 123.882,136.017 124.026 C 136.007 124.170,135.807 124.358,135.573 124.444 C 135.121 124.612,134.776 125.292,134.776 126.017 C 134.776 126.337,134.622 126.511,134.212 126.654 C 133.788 126.802,133.647 126.968,133.647 127.320 C 133.647 127.773,133.380 128.085,132.988 128.091 C 132.885 128.093,132.793 128.179,132.784 128.282 C 132.775 128.386,132.715 128.598,132.651 128.753 C 132.586 128.908,132.501 129.289,132.460 129.600 C 132.419 129.911,132.373 128.994,132.358 127.564 C 132.328 124.844,132.184 124.235,131.570 124.235 C 131.224 124.235,131.199 124.090,131.179 122.024 C 131.160 119.972,131.104 119.071,130.938 118.118 C 130.901 117.911,130.861 117.669,130.848 117.580 C 130.834 117.491,130.692 117.469,130.531 117.531 C 130.364 117.595,130.288 117.563,130.354 117.457 C 130.418 117.354,130.380 117.271,130.270 117.271 C 130.160 117.271,130.071 117.069,130.071 116.823 C 130.071 116.145,129.656 115.928,128.439 115.970 C 127.141 116.014,126.682 116.208,126.682 116.713 C 126.682 117.039,126.545 117.084,125.506 117.095 C 124.859 117.102,124.075 117.150,123.765 117.201 C 123.454 117.252,123.073 117.300,122.918 117.307 C 122.500 117.327,121.949 117.869,122.058 118.153 C 122.135 118.355,120.600 118.400,113.688 118.400 C 107.856 118.400,105.224 118.338,105.224 118.201 C 105.224 118.091,105.140 118.053,105.037 118.116 C 104.935 118.180,104.897 118.113,104.952 117.969 C 105.061 117.685,104.537 117.141,104.342 117.336 C 104.277 117.402,104.118 117.369,103.990 117.262 C 103.862 117.156,103.685 117.082,103.596 117.098 C 102.600 117.277,101.862 117.054,101.675 116.518 C 101.489 115.983,101.424 115.953,100.446 115.953 C 99.459 115.953,99.411 115.930,99.354 115.435 C 99.307 115.032,99.182 114.905,98.788 114.859 C 98.397 114.814,98.268 114.686,98.223 114.294 C 98.178 113.900,98.050 113.775,97.647 113.729 C 97.217 113.679,97.129 113.578,97.129 113.130 C 97.129 112.834,97.017 112.479,96.879 112.341 C 96.741 112.203,96.664 111.986,96.706 111.857 C 96.780 111.636,96.701 111.593,96.141 111.548 C 95.990 111.536,95.872 111.094,95.812 110.307 C 95.721 109.129,95.697 109.080,95.153 108.964 C 94.842 108.899,103.790 108.835,115.036 108.822 C 132.338 108.803,135.517 108.759,135.703 108.536 C 135.923 108.270,135.897 91.055,135.675 89.976 C 135.621 89.718,135.567 89.433,135.553 89.345 C 135.540 89.256,135.398 89.234,135.237 89.295 C 135.070 89.360,134.994 89.328,135.060 89.221 C 135.123 89.119,135.085 89.035,134.976 89.035 C 134.857 89.035,134.769 88.522,134.758 87.765 C 134.731 85.982,134.587 85.566,133.969 85.493 C 133.469 85.435,133.459 85.408,133.459 84.129 C 133.459 83.411,133.384 82.824,133.292 82.824 C 133.199 82.824,133.136 82.675,133.150 82.494 C 133.167 82.281,133.043 82.165,132.800 82.165 C 132.501 82.165,132.412 82.020,132.365 81.459 C 132.312 80.816,132.257 80.753,131.753 80.753 C 131.234 80.753,131.200 80.707,131.200 80.009 C 131.200 79.063,130.858 78.306,130.432 78.306 C 130.217 78.306,130.057 78.108,129.976 77.741 C 129.873 77.271,129.760 77.176,129.303 77.176 C 128.792 77.176,128.753 77.126,128.753 76.465 C 128.753 75.647,128.299 74.884,127.857 74.960 C 127.668 74.992,127.511 74.836,127.440 74.543 C 127.310 74.012,126.644 73.607,125.897 73.603 C 125.493 73.601,125.370 73.490,125.271 73.035 C 125.168 72.569,125.053 72.471,124.609 72.471 C 124.163 72.471,124.062 72.383,124.013 71.953 C 123.956 71.463,123.895 71.432,122.871 71.379 C 122.275 71.348,121.788 71.242,121.788 71.144 C 121.788 70.267,121.480 70.024,120.370 70.024 C 119.412 70.024,119.341 69.993,119.341 69.575 C 119.341 69.018,118.957 68.900,117.129 68.897 C 115.899 68.894,115.765 68.858,115.765 68.524 C 115.765 68.321,115.604 68.069,115.408 67.964 C 114.998 67.744,99.046 67.694,98.704 67.911 M109.022 83.418 C 109.055 83.642,109.209 83.847,109.365 83.874 C 109.520 83.901,109.859 83.966,110.118 84.018 C 110.376 84.070,110.736 84.119,110.918 84.127 C 111.109 84.135,111.247 84.289,111.247 84.495 C 111.247 84.902,111.558 85.201,112.086 85.298 C 112.293 85.337,112.502 85.572,112.564 85.836 C 112.642 86.172,112.819 86.323,113.184 86.365 C 113.669 86.422,113.785 86.719,113.682 87.641 C 113.675 87.702,113.823 87.878,114.011 88.031 C 114.199 88.185,114.247 88.257,114.118 88.191 C 113.988 88.126,113.882 88.153,113.882 88.251 C 113.882 88.479,114.427 88.694,114.652 88.554 C 114.747 88.496,114.824 88.908,114.824 89.479 C 114.824 90.804,114.949 91.106,115.502 91.106 C 115.931 91.106,115.953 91.164,115.953 92.329 L 115.953 93.553 105.271 93.534 C 97.568 93.520,94.759 93.460,95.200 93.318 L 95.812 93.122 95.812 91.461 C 95.812 90.190,95.868 89.822,96.052 89.892 C 96.632 90.115,97.063 89.330,97.114 87.959 C 97.123 87.708,97.224 87.576,97.365 87.627 C 97.724 87.759,98.053 87.470,98.131 86.957 C 98.182 86.617,98.335 86.478,98.707 86.434 C 99.095 86.388,99.240 86.246,99.323 85.833 C 99.405 85.423,99.551 85.278,99.927 85.234 C 100.311 85.190,100.437 85.059,100.483 84.659 C 100.531 84.244,100.643 84.137,101.048 84.119 C 101.326 84.108,101.638 84.078,101.741 84.054 C 101.845 84.030,102.120 83.997,102.353 83.982 C 102.628 83.963,102.776 83.832,102.776 83.608 C 102.776 83.037,102.914 83.012,105.995 83.012 C 108.891 83.012,108.963 83.021,109.022 83.418 " stroke="none" fill="#0074c8" fill-rule="evenodd"></path><path id="path4" d="M344.128 39.759 C 344.006 39.881,343.906 39.910,343.906 39.822 C 343.906 39.734,343.698 39.887,343.444 40.161 C 343.043 40.594,342.834 40.659,341.844 40.659 C 341.169 40.659,340.706 40.740,340.706 40.858 C 340.706 40.968,340.634 41.013,340.545 40.958 C 340.457 40.904,340.224 40.984,340.028 41.136 C 339.680 41.405,339.681 41.409,340.047 41.290 C 340.343 41.194,340.377 41.219,340.205 41.405 C 340.084 41.536,339.576 41.719,339.075 41.812 C 338.574 41.906,338.136 42.066,338.102 42.169 C 338.067 42.271,337.965 42.310,337.876 42.255 C 337.786 42.199,337.610 42.347,337.485 42.583 C 337.269 42.988,337.276 42.996,337.616 42.729 C 337.949 42.468,337.957 42.472,337.718 42.776 C 337.576 42.958,337.265 43.106,337.028 43.106 C 336.310 43.106,336.000 43.311,336.000 43.785 C 336.000 44.160,335.905 44.235,335.435 44.235 C 334.933 44.235,334.871 44.298,334.871 44.800 C 334.871 45.317,334.817 45.365,334.226 45.365 C 333.332 45.365,332.424 46.273,332.424 47.167 C 332.424 47.758,332.376 47.812,331.859 47.812 C 331.360 47.812,331.294 47.876,331.294 48.362 C 331.294 48.810,331.197 48.932,330.769 49.027 C 330.341 49.121,330.235 49.254,330.198 49.747 C 330.172 50.080,330.011 50.480,329.839 50.635 C 329.552 50.895,329.549 50.888,329.799 50.557 C 330.055 50.218,330.045 50.211,329.642 50.426 C 329.406 50.551,329.258 50.727,329.314 50.817 C 329.369 50.906,329.313 51.013,329.189 51.055 C 329.056 51.099,328.931 51.638,328.885 52.369 C 328.810 53.541,328.778 53.614,328.294 53.711 C 327.817 53.806,327.780 53.884,327.740 54.877 C 327.704 55.768,327.614 56.015,327.190 56.388 C 326.843 56.694,326.772 56.839,326.965 56.847 C 327.188 56.856,327.178 56.899,326.918 57.050 C 326.631 57.218,326.588 57.557,326.588 59.691 C 326.588 61.038,326.516 62.095,326.427 62.040 C 326.267 61.941,325.492 62.651,325.470 62.918 C 325.464 62.995,325.459 64.372,325.459 65.976 L 325.459 68.894 321.529 68.894 C 318.551 68.894,317.550 68.953,317.398 69.137 C 317.260 69.302,317.208 71.894,317.233 77.278 L 317.271 85.176 321.365 85.227 L 325.459 85.278 325.459 109.368 C 325.459 122.618,325.464 133.522,325.470 133.600 C 325.491 133.855,326.263 134.579,326.414 134.485 C 326.496 134.435,326.614 134.478,326.678 134.582 C 326.803 134.784,346.110 134.857,346.864 134.658 C 347.707 134.435,347.627 137.066,347.650 109.035 L 347.671 85.271 356.518 85.271 L 365.365 85.271 365.387 101.129 C 365.399 109.852,365.399 117.052,365.387 117.129 C 365.375 117.207,365.447 117.271,365.547 117.271 C 365.647 117.271,365.686 117.383,365.634 117.519 C 365.579 117.661,365.744 117.862,366.016 117.986 C 366.481 118.198,366.495 118.256,366.509 120.137 C 366.525 122.399,366.572 122.732,366.905 122.943 C 367.105 123.069,367.101 123.101,366.885 123.103 C 366.685 123.105,366.709 123.197,366.979 123.460 C 367.178 123.656,367.426 123.804,367.529 123.790 C 367.633 123.776,367.743 124.290,367.773 124.931 C 367.828 126.069,368.152 126.514,368.800 126.343 C 368.878 126.323,368.952 126.602,368.965 126.965 C 368.978 127.327,369.009 127.708,369.035 127.812 C 369.061 127.915,369.093 128.132,369.106 128.293 C 369.119 128.455,369.214 128.535,369.318 128.471 C 369.421 128.407,369.506 128.444,369.506 128.554 C 369.506 128.663,369.633 128.753,369.788 128.753 C 369.965 128.753,370.071 128.931,370.071 129.230 C 370.071 129.688,370.709 130.149,371.059 129.943 C 371.136 129.898,371.200 129.950,371.200 130.059 C 371.200 130.464,371.233 130.548,371.512 130.857 C 371.669 131.030,371.960 131.141,372.158 131.103 C 372.434 131.050,372.518 131.142,372.518 131.499 C 372.518 132.062,372.974 132.278,374.235 132.315 C 374.629 132.326,374.752 132.444,374.842 132.894 C 374.953 133.447,374.980 133.459,376.089 133.459 L 377.224 133.459 377.224 134.024 C 377.224 134.455,377.312 134.594,377.600 134.612 C 377.807 134.625,378.061 134.656,378.165 134.682 C 378.268 134.708,378.904 134.740,379.576 134.753 C 380.661 134.774,380.800 134.819,380.800 135.148 C 380.800 135.785,381.752 135.868,388.760 135.839 C 395.574 135.811,396.136 135.754,395.749 135.128 C 395.594 134.877,395.955 134.803,397.525 134.761 C 398.380 134.739,399.287 134.681,399.540 134.632 L 400.000 134.544 400.000 125.787 L 400.000 117.030 397.129 117.155 C 395.551 117.224,393.310 117.223,392.150 117.154 L 390.042 117.028 389.923 116.491 C 389.833 116.080,389.698 115.953,389.350 115.953 C 388.969 115.953,388.894 115.860,388.894 115.388 C 388.894 115.078,388.809 114.824,388.706 114.824 C 388.602 114.824,388.527 114.760,388.538 114.682 C 388.603 114.234,388.260 113.729,387.935 113.792 C 387.585 113.859,387.576 113.517,387.576 99.566 L 387.576 85.271 393.788 85.271 L 400.000 85.271 400.000 77.082 L 400.000 68.894 393.792 68.894 L 387.584 68.894 387.533 60.753 C 387.505 56.275,387.440 52.491,387.388 52.343 C 387.192 51.781,386.754 51.384,386.600 51.628 C 386.491 51.798,386.449 51.785,386.438 51.576 C 386.429 51.413,386.352 51.472,386.253 51.718 C 386.159 51.951,385.932 52.142,385.747 52.144 C 385.462 52.147,385.454 52.174,385.694 52.329 C 385.931 52.482,382.210 52.654,381.239 52.535 C 381.119 52.521,380.964 52.765,380.895 53.078 L 380.770 53.647 379.034 53.647 C 377.935 53.647,377.216 53.730,377.073 53.873 C 376.949 53.997,376.847 54.027,376.847 53.940 C 376.847 53.852,376.639 54.004,376.385 54.278 C 375.969 54.728,375.790 54.777,374.550 54.782 C 373.123 54.789,372.518 55.031,372.518 55.597 C 372.518 55.857,372.265 55.910,370.918 55.929 C 370.038 55.942,369.254 55.968,369.176 55.987 C 369.099 56.006,368.758 56.087,368.419 56.168 C 368.080 56.248,367.815 56.413,367.829 56.534 C 367.905 57.146,367.787 57.224,366.783 57.224 C 365.333 57.224,365.365 57.085,365.365 63.423 L 365.365 68.894 356.513 68.894 L 347.661 68.894 347.713 65.835 C 347.752 63.510,347.821 62.788,348.000 62.824 C 348.129 62.849,348.235 62.781,348.235 62.671 C 348.235 62.562,348.320 62.524,348.424 62.588 C 348.527 62.652,348.614 62.678,348.616 62.646 C 348.781 60.554,348.816 60.447,349.376 60.363 C 349.739 60.308,349.855 60.156,349.929 59.633 C 349.998 59.150,350.108 58.986,350.340 59.021 C 350.544 59.052,350.620 58.975,350.555 58.805 C 350.499 58.660,350.553 58.541,350.673 58.541 C 350.794 58.541,350.840 58.456,350.776 58.353 C 350.707 58.241,350.933 58.165,351.336 58.165 C 351.988 58.165,352.503 57.607,352.249 57.176 C 352.203 57.099,354.119 57.035,356.507 57.035 C 358.894 57.035,360.827 57.099,360.801 57.176 C 360.776 57.254,360.882 57.489,361.037 57.697 C 361.318 58.077,362.353 58.267,362.353 57.940 C 362.353 57.844,362.428 57.812,362.520 57.869 C 362.837 58.065,362.896 57.152,362.912 51.797 C 362.921 48.840,362.952 46.397,362.982 46.367 C 363.011 46.338,363.241 46.283,363.494 46.245 C 363.951 46.175,363.953 46.164,364.006 43.654 C 364.062 40.965,363.966 40.659,363.060 40.659 C 362.867 40.659,362.439 40.407,362.109 40.098 L 361.509 39.537 352.930 39.537 C 346.588 39.537,344.292 39.595,344.128 39.759 M219.611 68.336 L 219.400 68.894 217.559 68.894 C 216.405 68.894,215.718 68.968,215.718 69.091 C 215.718 69.199,215.569 69.262,215.388 69.232 C 215.169 69.195,215.076 69.282,215.111 69.492 C 215.168 69.837,214.797 70.005,213.751 70.106 C 212.956 70.183,212.518 70.496,212.518 70.988 C 212.518 71.271,212.367 71.346,211.765 71.365 C 211.351 71.378,210.929 71.399,210.827 71.412 C 210.592 71.442,209.998 72.279,210.201 72.293 C 210.285 72.299,210.056 72.405,209.694 72.528 C 209.241 72.683,209.016 72.885,208.975 73.176 C 208.928 73.506,208.792 73.600,208.363 73.600 C 207.879 73.600,207.812 73.667,207.812 74.153 C 207.812 74.639,207.738 74.713,207.200 74.765 C 206.662 74.816,206.581 74.897,206.529 75.435 C 206.477 75.973,206.404 76.047,205.917 76.047 C 205.438 76.047,205.365 76.117,205.365 76.570 C 205.365 76.979,205.241 77.141,204.800 77.307 C 204.337 77.482,204.235 77.627,204.235 78.112 C 204.235 78.438,204.163 78.660,204.075 78.605 C 203.987 78.551,203.754 78.631,203.557 78.783 C 203.210 79.052,203.210 79.056,203.576 78.937 C 203.924 78.824,203.921 78.846,203.529 79.227 C 203.184 79.563,203.106 79.844,203.106 80.760 C 203.106 81.826,203.083 81.882,202.644 81.882 C 201.923 81.882,201.790 82.779,201.789 87.647 C 201.788 92.841,201.831 93.157,202.567 93.304 C 203.092 93.409,203.106 93.442,203.106 94.612 L 203.106 95.812 203.671 95.812 C 204.200 95.812,204.237 95.859,204.259 96.565 C 204.272 96.979,204.304 97.402,204.329 97.506 C 204.355 97.609,204.387 97.779,204.400 97.882 C 204.413 97.986,204.635 98.071,204.894 98.071 C 205.321 98.071,205.461 98.253,205.380 98.702 C 205.335 98.956,205.766 99.395,205.949 99.282 C 206.137 99.166,206.649 99.409,206.669 99.624 C 206.676 99.701,206.682 99.894,206.682 100.052 C 206.682 100.220,206.916 100.386,207.247 100.452 C 207.558 100.514,207.825 100.660,207.840 100.776 C 207.856 100.893,207.878 101.106,207.888 101.250 C 207.899 101.394,208.137 101.536,208.417 101.565 C 209.003 101.628,209.770 102.008,209.329 102.018 C 208.823 102.029,209.748 102.683,210.541 102.876 C 211.096 103.011,211.309 103.165,211.352 103.463 C 211.415 103.908,211.864 104.088,212.926 104.092 C 213.540 104.094,213.631 104.157,213.741 104.659 C 213.862 105.209,213.893 105.224,214.991 105.224 C 215.610 105.224,216.069 105.299,216.012 105.392 C 215.955 105.485,216.062 105.751,216.251 105.984 C 216.580 106.391,216.919 106.478,218.353 106.525 C 218.747 106.538,218.919 106.606,218.780 106.694 C 218.258 107.026,219.312 107.521,220.817 107.651 C 222.039 107.756,223.140 108.047,222.314 108.047 C 222.121 108.047,222.119 108.104,222.304 108.327 C 222.432 108.481,222.606 108.565,222.691 108.513 C 222.775 108.460,222.898 108.503,222.963 108.609 C 223.028 108.714,223.627 108.800,224.293 108.800 C 225.246 108.800,225.506 108.861,225.506 109.082 C 225.506 109.238,225.591 109.365,225.694 109.365 C 225.798 109.365,225.861 109.462,225.835 109.580 C 225.806 109.715,226.175 109.826,226.815 109.875 C 227.755 109.947,228.829 110.285,228.165 110.300 C 227.605 110.313,228.368 110.846,229.282 111.080 C 229.962 111.254,230.212 111.409,230.212 111.656 C 230.212 111.868,230.404 112.040,230.729 112.119 C 231.363 112.273,232.115 112.753,231.722 112.753 C 231.508 112.753,231.501 112.800,231.689 112.988 C 231.819 113.118,232.026 113.224,232.151 113.224 C 232.275 113.224,232.402 113.520,232.434 113.882 C 232.466 114.245,232.630 114.647,232.799 114.776 C 233.013 114.940,233.032 115.012,232.860 115.012 C 232.662 115.012,232.659 115.068,232.847 115.294 C 232.976 115.449,233.198 115.576,233.341 115.576 C 233.721 115.576,233.657 115.909,233.252 116.038 C 232.808 116.179,232.471 116.918,232.471 117.750 C 232.471 118.129,232.373 118.412,232.235 118.429 C 232.106 118.444,231.873 118.466,231.718 118.476 C 231.563 118.486,231.427 118.622,231.417 118.777 C 231.407 118.932,231.386 119.165,231.370 119.294 C 231.354 119.424,231.087 119.529,230.776 119.529 C 230.466 119.529,230.201 119.614,230.188 119.718 C 230.175 119.821,230.144 119.991,230.118 120.094 C 230.092 120.198,230.060 120.367,230.047 120.471 C 230.034 120.576,229.423 120.661,228.659 120.665 C 227.238 120.671,226.635 120.915,226.635 121.483 C 226.635 121.766,226.270 121.791,222.824 121.745 C 219.868 121.706,219.012 121.640,219.012 121.452 C 219.012 121.135,218.549 120.856,218.229 120.979 C 218.090 121.032,217.976 120.982,217.976 120.867 C 217.976 120.726,217.193 120.659,215.529 120.659 C 213.570 120.659,213.082 120.607,213.082 120.398 C 213.082 119.868,212.200 119.529,210.819 119.529 C 209.977 119.529,209.527 119.460,209.600 119.341 C 209.664 119.238,209.618 119.153,209.497 119.153 C 209.376 119.153,209.324 119.032,209.381 118.883 C 209.453 118.695,209.374 118.635,209.119 118.684 C 208.917 118.723,208.753 118.675,208.753 118.577 C 208.753 118.480,208.209 118.400,207.544 118.400 C 206.379 118.400,206.332 118.381,206.222 117.882 C 206.123 117.435,206.005 117.358,205.356 117.313 C 204.471 117.252,204.288 117.541,204.250 119.066 C 204.238 119.512,204.146 119.644,203.829 119.668 C 203.219 119.714,203.112 120.033,203.109 121.824 C 203.106 123.342,203.079 123.456,202.740 123.390 C 202.485 123.341,202.406 123.401,202.478 123.589 C 202.544 123.761,202.455 123.864,202.232 123.874 C 202.040 123.882,201.986 123.931,202.113 123.982 C 202.291 124.054,202.285 124.168,202.088 124.485 C 201.944 124.716,201.817 125.507,201.797 126.299 C 201.759 127.753,201.684 128.074,201.419 127.911 C 201.334 127.858,201.142 128.005,200.991 128.237 C 200.667 128.738,200.530 131.388,200.829 131.388 C 200.936 131.388,200.981 131.500,200.928 131.637 C 200.793 131.988,201.645 132.329,202.655 132.329 C 203.178 132.329,203.459 132.402,203.387 132.519 C 203.323 132.623,203.403 132.841,203.564 133.003 C 203.726 133.165,203.859 133.232,203.859 133.152 C 203.859 133.072,203.960 133.109,204.085 133.233 C 204.228 133.376,204.951 133.459,206.061 133.459 C 207.321 133.459,207.820 133.525,207.840 133.694 C 207.856 133.824,207.878 134.049,207.888 134.196 C 207.913 134.535,208.316 134.598,211.200 134.709 C 213.565 134.800,213.840 134.886,214.079 135.603 C 214.152 135.822,228.480 135.979,229.279 135.770 C 229.497 135.713,229.752 135.466,229.845 135.221 C 230.009 134.791,230.085 134.776,232.137 134.761 C 235.250 134.738,235.580 134.661,235.702 133.929 C 235.758 133.594,235.949 133.543,237.459 133.459 C 238.620 133.394,239.160 133.291,239.176 133.129 C 239.189 133.000,239.211 132.767,239.224 132.612 C 239.240 132.409,239.473 132.329,240.047 132.327 C 241.281 132.323,241.694 132.158,241.694 131.669 C 241.694 131.321,241.825 131.220,242.400 131.125 C 242.788 131.061,243.275 130.980,243.482 130.944 C 243.702 130.906,243.837 130.756,243.807 130.583 C 243.762 130.327,244.034 130.008,244.329 129.970 C 244.918 129.894,245.271 129.610,245.271 129.211 C 245.271 128.828,245.363 128.753,245.835 128.753 C 246.337 128.753,246.400 128.690,246.400 128.188 C 246.400 127.777,246.490 127.623,246.729 127.621 C 247.208 127.616,247.547 127.355,247.605 126.946 C 247.633 126.749,247.867 126.484,248.126 126.358 C 248.431 126.208,248.679 125.850,248.833 125.338 C 248.979 124.849,249.122 124.636,249.210 124.778 C 249.316 124.949,249.411 124.934,249.593 124.715 C 249.772 124.499,249.776 124.424,249.610 124.424 C 249.466 124.424,249.491 124.317,249.681 124.128 C 249.843 123.965,249.976 123.593,249.976 123.301 C 249.976 122.970,250.190 122.541,250.541 122.165 C 251.105 121.561,251.106 121.557,251.106 119.251 L 251.106 116.941 251.648 116.833 C 252.262 116.710,252.484 115.871,252.329 114.259 C 252.284 113.793,252.239 113.260,252.230 113.075 C 252.219 112.860,252.014 112.699,251.659 112.628 L 251.106 112.518 251.106 110.114 C 251.106 108.082,251.059 107.693,250.804 107.595 C 250.626 107.527,250.548 107.360,250.614 107.189 C 250.677 107.022,250.646 106.947,250.539 107.013 C 250.437 107.076,250.353 107.033,250.353 106.918 C 250.353 106.802,250.273 106.756,250.176 106.816 C 250.079 106.876,249.973 106.606,249.941 106.216 C 249.890 105.599,249.815 105.498,249.365 105.446 C 248.977 105.402,248.847 105.284,248.846 104.976 C 248.844 104.052,248.466 103.179,248.044 103.118 C 247.811 103.085,247.597 102.898,247.558 102.696 C 247.463 102.199,247.116 101.885,246.725 101.942 C 246.529 101.971,246.399 101.866,246.397 101.677 C 246.393 101.206,246.100 100.837,245.708 100.808 C 245.242 100.774,244.865 100.529,244.983 100.338 C 245.035 100.253,244.952 100.079,244.798 99.951 C 244.574 99.765,244.518 99.768,244.518 99.966 C 244.518 100.138,244.447 100.120,244.282 99.907 C 244.153 99.738,243.799 99.573,243.497 99.541 C 243.081 99.497,242.939 99.379,242.917 99.059 C 242.877 98.507,242.768 98.413,242.063 98.331 C 241.300 98.242,241.080 98.095,241.209 97.759 C 241.267 97.607,241.231 97.537,241.127 97.601 C 241.025 97.665,240.941 97.622,240.941 97.506 C 240.941 97.390,240.856 97.348,240.753 97.412 C 240.649 97.476,240.565 97.438,240.565 97.329 C 240.565 97.219,240.305 97.129,239.987 97.129 C 239.402 97.129,238.782 96.716,239.015 96.483 C 239.085 96.413,238.982 96.418,238.787 96.493 C 238.567 96.577,238.477 96.557,238.549 96.440 C 238.684 96.221,238.607 96.202,237.047 96.068 C 235.944 95.973,235.875 95.938,235.761 95.419 L 235.641 94.871 233.962 94.871 L 232.282 94.871 232.282 94.337 C 232.282 94.044,232.176 93.792,232.047 93.777 C 230.072 93.549,229.809 93.480,229.626 93.137 C 229.512 92.924,229.314 92.815,229.152 92.877 C 229.000 92.936,228.921 92.909,228.977 92.818 C 229.132 92.567,228.598 92.424,227.508 92.424 C 226.590 92.424,226.516 92.388,226.312 91.848 C 226.193 91.531,225.984 91.287,225.847 91.305 C 225.248 91.386,224.004 91.281,224.040 91.153 C 224.140 90.799,223.579 90.185,223.106 90.130 C 222.821 90.097,222.590 89.986,222.593 89.882 C 222.602 89.548,222.051 89.027,221.917 89.243 C 221.807 89.422,221.523 89.019,221.475 88.615 C 221.466 88.540,221.268 88.344,221.035 88.181 C 220.582 87.864,220.350 84.710,220.800 84.988 C 220.904 85.052,220.988 84.973,220.988 84.811 C 220.988 84.650,221.129 84.518,221.302 84.518 C 221.475 84.518,221.560 84.462,221.492 84.394 C 221.322 84.224,221.743 83.744,221.951 83.872 C 222.043 83.929,222.118 83.880,222.118 83.765 C 222.118 83.649,222.201 83.606,222.304 83.669 C 222.408 83.733,222.444 83.664,222.385 83.511 C 222.256 83.175,222.554 82.977,223.279 82.915 C 223.954 82.858,223.989 82.825,224.041 82.197 L 224.082 81.694 230.683 81.694 L 237.285 81.694 237.315 82.099 C 237.362 82.728,237.581 82.832,239.076 82.934 C 240.679 83.043,241.009 83.126,240.854 83.377 C 240.565 83.844,242.916 84.280,244.471 84.049 C 245.232 83.936,245.271 83.899,245.271 83.288 C 245.271 82.796,245.336 82.672,245.553 82.755 C 245.708 82.815,245.835 82.765,245.835 82.644 C 245.835 82.524,245.910 82.471,246.002 82.528 C 246.238 82.674,246.332 82.186,246.381 80.565 C 246.412 79.540,246.508 79.075,246.731 78.871 C 247.012 78.612,247.015 78.619,246.766 78.948 C 246.509 79.289,246.519 79.296,246.934 79.074 C 247.176 78.946,247.325 78.791,247.265 78.731 C 247.205 78.672,247.246 78.514,247.357 78.381 C 247.584 78.107,247.678 77.396,247.701 75.758 C 247.716 74.742,247.760 74.618,248.115 74.591 C 248.727 74.545,248.753 74.455,248.753 72.376 C 248.753 70.134,248.801 70.228,247.601 70.098 C 246.494 69.978,246.118 69.867,246.278 69.707 C 246.717 69.268,245.583 68.945,243.503 68.918 C 241.807 68.895,241.730 68.876,241.622 68.446 C 241.453 67.773,241.437 67.772,230.240 67.774 L 219.822 67.777 219.611 68.336 M278.447 67.963 C 278.214 68.054,278.024 68.077,278.024 68.014 C 278.024 67.950,277.816 68.122,277.562 68.396 C 277.131 68.861,276.991 68.894,275.474 68.894 C 274.151 68.894,273.790 68.957,273.536 69.232 C 273.364 69.418,273.308 69.447,273.412 69.296 C 273.572 69.061,273.537 69.054,273.171 69.249 C 272.935 69.375,272.787 69.549,272.841 69.637 C 272.972 69.849,272.484 70.023,271.749 70.026 C 270.706 70.031,270.335 70.216,270.208 70.796 C 270.095 71.306,270.029 71.341,269.172 71.341 C 268.269 71.341,267.511 71.872,267.784 72.313 C 267.837 72.400,267.500 72.471,267.034 72.471 C 266.568 72.471,266.134 72.557,266.069 72.662 C 266.004 72.767,265.881 72.810,265.795 72.757 C 265.710 72.705,265.589 72.867,265.526 73.118 C 265.445 73.440,265.258 73.593,264.894 73.635 C 264.488 73.681,264.364 73.805,264.317 74.212 C 264.267 74.642,264.166 74.729,263.719 74.729 C 263.422 74.729,263.057 74.852,262.906 75.003 C 262.756 75.153,262.587 75.231,262.532 75.175 C 262.476 75.119,262.325 75.271,262.196 75.513 C 261.975 75.928,261.982 75.937,262.311 75.671 C 262.527 75.496,262.605 75.480,262.516 75.629 C 262.436 75.761,262.060 76.020,261.680 76.205 C 261.299 76.390,261.006 76.631,261.028 76.742 C 261.050 76.853,260.901 77.094,260.698 77.277 C 260.495 77.461,260.329 77.550,260.329 77.475 C 260.329 77.005,259.709 78.076,259.627 78.688 C 259.545 79.298,259.452 79.435,259.119 79.435 C 258.594 79.435,258.259 79.775,258.259 80.307 C 258.259 80.626,258.134 80.742,257.741 80.787 C 257.292 80.839,257.216 80.940,257.165 81.553 C 257.117 82.130,257.032 82.262,256.695 82.274 C 256.468 82.282,256.386 82.330,256.512 82.382 C 256.674 82.447,256.632 82.593,256.371 82.873 C 256.167 83.092,256.000 83.509,256.000 83.800 C 256.000 84.145,255.902 84.329,255.718 84.329 C 255.562 84.329,255.435 84.414,255.435 84.518 C 255.435 84.621,255.316 84.706,255.170 84.706 C 255.023 84.706,254.923 84.836,254.946 84.994 C 255.008 85.412,254.794 86.800,254.678 86.736 C 254.232 86.492,253.698 87.596,253.576 89.015 C 253.500 89.901,253.339 90.635,253.189 90.774 C 252.977 90.971,252.956 90.947,253.066 90.635 C 253.165 90.355,253.144 90.313,252.985 90.470 C 252.659 90.795,252.565 91.532,252.481 94.437 C 252.413 96.805,252.366 97.122,252.066 97.217 C 251.445 97.415,251.326 98.130,251.302 101.796 C 251.277 105.886,251.333 106.275,251.969 106.434 L 252.424 106.548 252.438 109.509 C 252.456 113.156,252.581 113.780,253.216 113.387 C 253.421 113.261,253.510 113.583,253.641 114.918 C 253.701 115.539,253.767 116.193,253.786 116.370 C 253.807 116.557,254.044 116.743,254.346 116.809 C 254.840 116.917,255.063 117.804,254.898 118.998 C 254.888 119.068,255.132 119.180,255.440 119.248 C 255.926 119.355,256.000 119.455,256.000 120.006 C 256.000 120.864,256.361 121.600,256.783 121.600 C 257.043 121.600,257.129 121.742,257.129 122.169 C 257.129 122.652,257.216 122.756,257.694 122.852 C 258.071 122.927,258.259 123.078,258.259 123.304 C 258.259 123.491,258.385 123.770,258.539 123.924 C 258.752 124.137,258.764 124.228,258.587 124.299 C 258.456 124.352,258.507 124.400,258.702 124.409 C 258.925 124.418,259.015 124.521,258.949 124.693 C 258.876 124.881,258.955 124.941,259.211 124.892 C 259.514 124.834,259.576 124.929,259.576 125.455 C 259.576 126.005,259.650 126.104,260.141 126.212 C 260.452 126.280,260.712 126.393,260.720 126.462 C 260.821 127.348,261.071 127.616,261.799 127.621 C 262.041 127.622,262.182 127.707,262.118 127.812 C 262.054 127.915,262.096 128.000,262.212 128.000 C 262.328 128.000,262.370 128.084,262.307 128.186 C 262.241 128.293,262.316 128.324,262.483 128.261 C 262.654 128.195,262.821 128.273,262.889 128.451 C 262.963 128.644,263.230 128.753,263.632 128.753 C 264.201 128.753,264.264 128.809,264.317 129.365 C 264.354 129.743,264.469 129.958,264.619 129.927 C 265.020 129.845,265.637 130.268,265.529 130.550 C 265.393 130.904,265.656 131.036,266.778 131.176 C 267.518 131.268,267.741 131.374,267.782 131.652 C 267.856 132.161,268.202 132.323,269.224 132.327 C 269.715 132.328,270.128 132.414,270.141 132.518 C 270.245 133.349,270.435 133.459,271.776 133.462 C 272.658 133.464,272.951 133.519,272.753 133.647 C 272.515 133.801,272.526 133.830,272.820 133.832 C 273.042 133.834,273.133 133.932,273.068 134.099 C 273.004 134.268,273.079 134.346,273.280 134.317 C 273.452 134.292,273.686 134.365,273.802 134.481 C 273.917 134.596,274.681 134.713,275.500 134.741 C 277.145 134.798,277.703 134.910,277.553 135.153 C 277.217 135.697,278.465 135.796,285.760 135.804 C 292.413 135.812,293.702 135.699,293.355 135.138 C 293.194 134.876,293.532 134.808,295.252 134.754 C 296.973 134.701,298.221 134.455,298.063 134.199 C 297.783 133.747,298.247 133.459,299.267 133.451 C 300.166 133.445,300.430 133.358,300.981 132.886 C 301.412 132.518,301.839 132.329,302.242 132.329 C 302.624 132.329,302.924 132.206,303.044 132.000 C 303.174 131.777,303.237 131.754,303.241 131.929 C 303.246 132.136,303.302 132.141,303.527 131.955 C 303.681 131.827,303.761 131.647,303.704 131.555 C 303.584 131.360,304.520 130.962,304.756 131.108 C 304.945 131.224,305.212 130.845,305.219 130.450 C 305.222 130.260,305.604 130.088,306.401 129.915 C 307.048 129.776,307.535 129.591,307.483 129.506 C 307.270 129.162,307.638 128.753,308.161 128.753 C 308.689 128.753,308.784 128.610,308.756 127.859 C 308.752 127.729,308.933 127.624,309.160 127.624 C 309.662 127.624,310.024 127.290,310.024 126.828 C 310.024 126.597,310.208 126.448,310.588 126.372 C 311.025 126.284,311.153 126.158,311.153 125.812 C 311.153 125.566,311.238 125.354,311.341 125.341 C 311.445 125.328,311.614 125.296,311.718 125.271 C 311.821 125.245,311.991 125.213,312.094 125.200 C 312.198 125.187,312.282 124.922,312.282 124.612 C 312.282 124.141,312.358 124.047,312.735 124.047 C 313.068 124.047,313.238 123.898,313.383 123.483 C 313.492 123.173,313.797 122.820,314.062 122.699 C 314.327 122.578,314.531 122.388,314.515 122.275 C 314.464 121.913,314.771 120.485,314.893 120.515 C 315.517 120.672,315.859 120.218,315.859 119.234 C 315.859 118.461,315.928 118.206,316.141 118.188 C 316.296 118.175,316.529 118.154,316.659 118.141 C 316.813 118.126,316.914 117.711,316.950 116.941 C 316.986 116.197,317.089 115.757,317.233 115.743 C 317.357 115.731,317.579 115.710,317.725 115.696 C 318.008 115.669,318.049 115.492,318.264 113.412 C 318.379 112.294,318.454 112.094,318.756 112.093 C 319.303 112.092,319.323 111.711,319.333 101.459 C 319.341 92.090,319.291 90.884,318.872 90.469 C 318.715 90.314,318.692 90.357,318.781 90.635 C 318.900 91.007,318.897 91.007,318.604 90.646 C 318.435 90.439,318.296 89.890,318.282 89.376 C 318.256 88.371,318.257 88.376,318.037 87.726 C 317.853 87.185,317.457 86.746,317.297 86.906 C 317.132 87.072,317.006 86.614,316.924 85.553 C 316.880 84.979,316.768 84.630,316.638 84.659 C 316.520 84.685,316.424 84.621,316.424 84.518 C 316.424 84.414,316.296 84.329,316.141 84.329 C 315.937 84.329,315.855 84.109,315.846 83.529 C 315.835 82.859,315.537 81.664,315.496 82.124 C 315.462 82.501,314.766 81.831,314.665 81.324 C 314.574 80.869,314.454 80.753,314.075 80.753 C 313.677 80.753,313.600 80.665,313.600 80.211 C 313.600 79.913,313.474 79.565,313.320 79.437 C 313.166 79.309,313.083 79.134,313.137 79.047 C 313.190 78.960,313.041 78.787,312.805 78.661 C 312.400 78.445,312.392 78.452,312.659 78.793 C 312.920 79.126,312.916 79.133,312.612 78.895 C 312.431 78.753,312.281 78.456,312.279 78.236 C 312.275 77.655,312.001 77.309,311.515 77.273 C 311.270 77.255,311.070 77.103,311.042 76.912 C 310.945 76.250,310.779 76.047,310.335 76.047 C 309.983 76.047,309.857 75.922,309.769 75.482 C 309.682 75.043,309.556 74.918,309.204 74.918 C 308.750 74.918,308.239 74.506,308.441 74.304 C 308.501 74.244,308.352 74.090,308.110 73.961 C 307.734 73.760,307.698 73.766,307.859 74.002 C 307.962 74.153,307.906 74.124,307.735 73.938 C 307.563 73.752,307.203 73.600,306.935 73.600 C 306.666 73.600,306.436 73.515,306.424 73.412 C 306.411 73.308,306.389 73.120,306.376 72.994 C 306.364 72.868,306.056 72.677,305.694 72.570 C 305.332 72.463,305.008 72.248,304.975 72.093 C 304.942 71.939,304.831 71.727,304.728 71.624 C 304.606 71.499,304.583 71.563,304.663 71.812 C 304.782 72.182,304.779 72.182,304.487 71.825 C 304.320 71.619,303.842 71.411,303.390 71.346 C 302.949 71.282,302.600 71.150,302.613 71.051 C 302.627 70.952,302.479 70.708,302.284 70.508 C 302.020 70.239,301.929 70.215,301.927 70.414 C 301.924 70.637,301.893 70.634,301.745 70.400 C 301.544 70.082,301.533 70.079,300.235 70.047 C 299.515 70.029,299.294 69.954,299.294 69.728 C 299.294 69.119,298.842 68.969,296.847 68.916 C 294.947 68.865,294.514 68.727,294.595 68.200 C 294.660 67.776,279.490 67.554,278.447 67.963 M288.982 84.490 C 288.877 84.987,289.351 85.271,290.282 85.271 C 290.787 85.271,291.211 85.355,291.224 85.459 C 291.236 85.562,291.268 85.732,291.294 85.835 C 291.320 85.939,291.352 86.108,291.365 86.212 C 291.378 86.315,291.642 86.400,291.953 86.400 C 292.455 86.400,292.518 86.463,292.518 86.965 C 292.518 87.503,292.790 87.665,293.506 87.552 C 293.584 87.539,293.647 87.826,293.647 88.188 C 293.647 88.551,293.737 88.847,293.846 88.847 C 293.956 88.847,293.993 88.932,293.929 89.035 C 293.865 89.139,293.909 89.224,294.026 89.224 C 294.401 89.224,294.776 89.746,294.776 90.268 C 294.776 90.562,295.013 91.043,295.341 91.417 C 295.791 91.929,295.908 92.241,295.919 92.948 C 295.938 94.284,296.076 95.120,296.301 95.259 C 296.412 95.327,296.517 95.459,296.534 95.550 C 296.551 95.642,296.713 95.708,296.894 95.695 C 297.202 95.674,297.224 96.080,297.224 101.766 C 297.224 107.601,297.209 107.859,296.870 107.859 C 296.313 107.859,296.092 108.288,295.985 109.578 C 295.837 111.363,295.752 111.645,295.383 111.583 C 295.164 111.547,295.077 111.636,295.114 111.859 C 295.145 112.040,295.081 112.188,294.973 112.188 C 294.865 112.188,294.776 112.518,294.776 112.921 C 294.776 113.545,294.707 113.671,294.306 113.771 C 294.047 113.836,293.825 114.015,293.812 114.168 C 293.799 114.322,293.767 114.532,293.741 114.635 C 293.715 114.739,293.684 115.078,293.671 115.388 C 293.650 115.885,293.579 115.953,293.082 115.953 C 292.580 115.953,292.518 116.016,292.518 116.518 C 292.518 117.067,292.381 117.161,291.624 117.133 C 291.494 117.128,291.388 117.204,291.388 117.303 C 291.388 117.401,291.304 117.429,291.200 117.365 C 291.096 117.301,291.012 117.343,291.012 117.459 C 291.012 117.575,290.931 117.620,290.833 117.559 C 290.735 117.498,290.551 117.641,290.426 117.877 C 290.210 118.282,290.217 118.290,290.557 118.024 C 290.890 117.762,290.898 117.766,290.659 118.071 C 290.506 118.266,290.147 118.400,289.780 118.400 C 289.243 118.400,289.143 118.476,289.035 118.965 L 288.911 119.529 285.929 119.529 L 282.948 119.529 282.824 118.965 C 282.703 118.416,282.669 118.400,281.596 118.400 C 280.610 118.400,280.500 118.361,280.562 118.040 C 280.638 117.642,280.158 117.145,279.718 117.167 C 279.562 117.175,279.388 116.968,279.331 116.708 C 279.273 116.448,279.125 116.256,279.001 116.282 C 278.878 116.308,278.776 116.236,278.776 116.121 C 278.776 116.006,278.649 115.961,278.494 116.021 C 278.289 116.100,278.212 115.999,278.212 115.648 C 278.212 115.287,278.072 115.114,277.647 114.954 C 277.290 114.820,277.082 114.608,277.082 114.381 C 277.082 113.671,276.660 112.594,276.417 112.687 C 276.076 112.818,275.981 112.578,275.929 111.450 C 275.904 110.901,275.776 110.344,275.645 110.213 C 275.514 110.082,275.459 109.922,275.523 109.858 C 275.587 109.794,275.531 109.741,275.399 109.741 C 275.268 109.741,275.205 109.622,275.261 109.477 C 275.326 109.307,275.250 109.230,275.046 109.260 C 274.762 109.302,274.720 108.941,274.635 105.712 C 274.564 102.976,274.485 102.129,274.306 102.165 C 274.176 102.191,274.071 102.118,274.071 102.003 C 274.071 101.889,273.944 101.844,273.788 101.903 C 273.633 101.963,273.506 101.936,273.506 101.844 C 273.506 101.752,273.751 101.623,274.050 101.557 L 274.594 101.438 274.624 97.549 C 274.657 93.371,274.636 93.511,275.240 93.418 C 275.782 93.336,275.766 93.367,275.878 92.223 C 275.984 91.133,276.084 90.860,276.322 91.007 C 276.553 91.150,277.082 89.913,277.082 89.231 C 277.082 88.904,277.153 88.680,277.240 88.734 C 277.498 88.894,278.212 88.289,278.212 87.910 C 278.212 87.673,278.396 87.519,278.778 87.435 C 279.090 87.367,279.301 87.240,279.248 87.155 C 279.052 86.838,279.382 86.439,279.930 86.329 C 280.241 86.267,280.446 86.136,280.386 86.039 C 280.326 85.941,280.364 85.807,280.471 85.741 C 280.577 85.675,280.621 85.551,280.568 85.465 C 280.515 85.379,280.874 85.260,281.365 85.201 C 282.666 85.044,282.738 85.028,282.642 84.932 C 282.594 84.884,282.640 84.684,282.745 84.488 C 282.993 84.025,289.079 84.027,288.982 84.490 " stroke="none" fill="#a1a4a7" fill-rule="evenodd"></path></g></svg>